STARTFONT 2.3
FONT -FontForge-Righteous-Book-R-Normal--16-160-72-72-P-86-ISO10646-1
SIZE 16 72 72  4
FONTBOUNDINGBOX 21 20 -3 -4
COMMENT "Generated by fontforge, http://fontforge.sourceforge.net"
COMMENT "Copyright (c) 2011 by Brian J. Bonislawsky DBA Astigmatic (AOETI) (astigma@astigmatic.com), with ReservedFont Name "Righteous""
STARTPROPERTIES 40
FOUNDRY "FontForge"
FAMILY_NAME "Righteous"
WEIGHT_NAME "Book"
SLANT "R"
SETWIDTH_NAME "Normal"
ADD_STYLE_NAME ""
PIXEL_SIZE 16
POINT_SIZE 160
RESOLUTION_X 72
RESOLUTION_Y 72
SPACING "P"
AVERAGE_WIDTH 86
CHARSET_REGISTRY "ISO10646"
CHARSET_ENCODING "1"
FONTNAME_REGISTRY ""
CHARSET_COLLECTIONS "ISO8859-2 ISO8859-9 ISO8859-4 ISO10646-1"
BITS_PER_PIXEL 4
FONT_NAME "Righteous-Regular"
FACE_NAME "Righteous"
COPYRIGHT "Copyright (c) 2011 by Brian J. Bonislawsky DBA Astigmatic (AOETI) (astigma@astigmatic.com), with ReservedFont Name "Righteous""
FONT_VERSION "1.000"
FONT_ASCENT 13
FONT_DESCENT 3
UNDERLINE_POSITION -2
UNDERLINE_THICKNESS 1
X_HEIGHT 8
CAP_HEIGHT 11
RAW_ASCENT 799
RAW_DESCENT 200
NORM_SPACE 4
RELATIVE_WEIGHT 40
RELATIVE_SETWIDTH 50
SUPERSCRIPT_X 0
SUPERSCRIPT_Y 7
SUPERSCRIPT_SIZE 10
SUBSCRIPT_X 0
SUBSCRIPT_Y 2
SUBSCRIPT_SIZE 10
AVG_LOWERCASE_WIDTH 85
AVG_UPPERCASE_WIDTH 101
ENDPROPERTIES
CHARS 372
STARTCHAR space
ENCODING 32
SWIDTH 279 0
DWIDTH 4 0
BBX 1 1 0 0
BITMAP
00
ENDCHAR
STARTCHAR exclam
ENCODING 33
SWIDTH 274 0
DWIDTH 4 0
BBX 4 13 0 -1
BITMAP
0332
2FF8
1FF7
0FF6
0EF5
0DF4
0CF3
0CF3
0BF2
0340
0CF4
1FF7
0471
ENDCHAR
STARTCHAR quotedbl
ENCODING 34
SWIDTH 409 0
DWIDTH 7 0
BBX 6 5 0 7
BITMAP
133232
2FF6FB
1FD5F9
0FC4F8
043152
ENDCHAR
STARTCHAR numbersign
ENCODING 35
SWIDTH 561 0
DWIDTH 9 0
BBX 9 9 0 1
BITMAP
0003303300
001FC3FA00
04CFECFD40
08FFEFFE20
00CE1EC000
2EFFEFF800
4DFCEFB300
0AF2DE0000
0230320000
ENDCHAR
STARTCHAR dollar
ENCODING 36
SWIDTH 458 0
DWIDTH 7 0
BBX 7 12 0 0
BITMAP
00031000
000F7000
001F8100
08FFFF40
3FC99930
3FC88400
0AFFFF60
01345FA0
4FFFFF60
399FC500
000F7000
000F7000
ENDCHAR
STARTCHAR percent
ENCODING 37
SWIDTH 685 0
DWIDTH 11 0
BBX 11 13 0 -1
BITMAP
015400013100
0DFF800AE100
4F59E03F8000
6F16F1BE1000
4F7AE4F60000
0BFF7CD00000
00326F567100
0001DBAFFD00
0007F3F84F40
001EA1F62F50
009F20EB9F30
02F8006FFA00
000000011000
ENDCHAR
STARTCHAR ampersand
ENCODING 38
SWIDTH 485 0
DWIDTH 8 0
BBX 6 12 1 0
BITMAP
001300
005F10
18DFCA
AFEEEB
FB0000
DE6630
8FFF80
ED5520
FC0000
9FFFFC
07CFB9
005F10
ENDCHAR
STARTCHAR quotesingle
ENCODING 39
SWIDTH 238 0
DWIDTH 4 0
BBX 3 5 0 7
BITMAP
1330
2FF0
1FD0
0FC0
0430
ENDCHAR
STARTCHAR parenleft
ENCODING 40
SWIDTH 351 0
DWIDTH 6 0
BBX 6 15 0 -2
BITMAP
004CC2
01DF80
07FE10
0DF800
2FF300
5FF000
6FD000
6FD000
5FE000
3FF200
0EF600
09FC00
03FF30
00AFC0
002992
ENDCHAR
STARTCHAR parenright
ENCODING 41
SWIDTH 351 0
DWIDTH 6 0
BBX 5 15 0 -2
BITMAP
6CB100
1DF900
05FF20
00EF70
009FB0
006FE0
004FF0
004FF0
005FE0
008FC0
00CF80
02FF40
09FC00
3FF400
597000
ENDCHAR
STARTCHAR asterisk
ENCODING 42
SWIDTH 589 0
DWIDTH 9 0
BBX 9 9 0 5
BITMAP
0002440000
0006FC0000
0646FC1710
2EFDFEEF80
2AFFFFFE60
005FFFA100
00BFFFF400
07FF4BFE10
00A701C300
ENDCHAR
STARTCHAR plus
ENCODING 43
SWIDTH 485 0
DWIDTH 8 0
BBX 8 7 0 2
BITMAP
003FF000
003FF000
4BCFFBB2
6FFFFFF3
268FF661
003FF000
00188000
ENDCHAR
STARTCHAR comma
ENCODING 44
SWIDTH 264 0
DWIDTH 4 0
BBX 4 5 0 -2
BITMAP
0010
1DE3
2FF6
07F3
05A0
ENDCHAR
STARTCHAR hyphen
ENCODING 45
SWIDTH 528 0
DWIDTH 8 0
BBX 8 3 0 4
BITMAP
0BBBBBB6
1FFFFFF8
06666663
ENDCHAR
STARTCHAR period
ENCODING 46
SWIDTH 263 0
DWIDTH 4 0
BBX 4 4 0 -1
BITMAP
0010
1DE3
2FF5
0570
ENDCHAR
STARTCHAR slash
ENCODING 47
SWIDTH 490 0
DWIDTH 8 0
BBX 8 12 0 0
BITMAP
00000331
00003FF2
00009FA0
0001EF40
0007FD00
000DF700
004FE100
00AF9000
02FF3000
08FC0000
0EF60000
5FE00000
ENDCHAR
STARTCHAR zero
ENCODING 48
SWIDTH 642 0
DWIDTH 10 0
BBX 10 13 0 -1
BITMAP
0001452000
008FFFFB10
06FFDCFFA0
0DF9005FF2
3FF1000CF7
4FD00009F9
5FD00008F9
4FE00009F8
2FF2000DF6
0CFB108FF2
04FFFFFF80
005DFFE800
0000120000
ENDCHAR
STARTCHAR one
ENCODING 49
SWIDTH 317 0
DWIDTH 5 0
BBX 4 12 0 0
BITMAP
1333
6FFF
6FFF
04FF
04FF
04FF
04FF
04FF
04FF
04FF
04FF
04FF
ENDCHAR
STARTCHAR two
ENCODING 50
SWIDTH 570 0
DWIDTH 9 0
BBX 9 12 0 0
BITMAP
0333320000
0CFFFFD400
0CFFFFFE10
000002EF70
000000CF70
004ABCFF30
07FFFFF700
2FFB873000
4FF0000000
5FE4444410
5FFFFFFF40
5FFFFFFF40
ENDCHAR
STARTCHAR three
ENCODING 51
SWIDTH 586 0
DWIDTH 9 0
BBX 9 12 0 0
BITMAP
1333330000
3FFFFFE400
3FFFFFFF20
000002DF80
000000BF80
008BBCFF40
00CFFFFE00
006889FF50
000000AF90
144445EF70
3FFFFFFE10
3FFFFFB200
ENDCHAR
STARTCHAR four
ENCODING 52
SWIDTH 630 0
DWIDTH 10 0
BBX 10 12 0 0
BITMAP
0133000000
06FD001100
08FB00EF50
0AF800EF50
0CF600EF50
0EF400EF50
1FF200EF50
3FF777FFA3
5FFFFFFFF6
5BBBBBFFC5
000000EF50
000000EF50
ENDCHAR
STARTCHAR five
ENCODING 53
SWIDTH 585 0
DWIDTH 9 0
BBX 9 12 0 0
BITMAP
0233333310
0AFFFFFF50
0BFFFFFF50
0DF6000000
0EF5100000
1FFFFFC400
2FFFFFFF30
133334CFA0
0000007FC0
144444DFA0
3FFFFFFF30
3FFFFEB300
ENDCHAR
STARTCHAR six
ENCODING 54
SWIDTH 615 0
DWIDTH 10 0
BBX 10 13 0 -1
BITMAP
0001332000
001DFB1000
00CFC10000
06FE552000
0CFFFFFA10
2FFFCCFF90
4FF8007FF1
6FF1000FF4
5FF2001FF3
1FFA11AFE1
07FFFFFF70
006EFFE600
0001441000
ENDCHAR
STARTCHAR seven
ENCODING 55
SWIDTH 516 0
DWIDTH 8 0
BBX 9 12 0 0
BITMAP
2333333310
9FFFFFFE10
9FFFFFFA00
00001FF500
00005FE000
0000BF9000
0001FF4000
0006FE0000
000CF90000
002FF40000
007FE00000
00CF900000
ENDCHAR
STARTCHAR eight
ENCODING 56
SWIDTH 618 0
DWIDTH 10 0
BBX 10 13 0 -1
BITMAP
0004773000
00BFFFF900
07FFAAFF60
0BF8009FA0
09FA01BF80
02EFEEFE20
06FFFFFE50
2FF7019FE1
6FD0000EF4
5FE2003FF3
0CFE9AEFB0
01AFFFF910
0001441000
ENDCHAR
STARTCHAR nine
ENCODING 57
SWIDTH 616 0
DWIDTH 10 0
BBX 10 12 0 0
BITMAP
0004773000
01CFFFF900
0AFFCDFF70
3FF500AFE1
6FD0003FF3
6FE0004FF3
3FF701CFF1
09FFFFFFD0
008FFEFF90
000126FF20
00003EF700
0005EF9000
ENDCHAR
STARTCHAR colon
ENCODING 58
SWIDTH 276 0
DWIDTH 4 0
BBX 4 8 0 -1
BITMAP
0581
1FF7
0CE4
0000
0010
0CF4
1FF7
0471
ENDCHAR
STARTCHAR semicolon
ENCODING 59
SWIDTH 276 0
DWIDTH 4 0
BBX 4 9 0 -2
BITMAP
0581
1FF7
0CE4
0000
0010
0CF4
1FF8
05F5
04C0
ENDCHAR
STARTCHAR less
ENCODING 60
SWIDTH 478 0
DWIDTH 8 0
BBX 7 10 0 1
BITMAP
00004900
0003EF90
003EFE20
02EFE200
2DFE2000
2DFF5000
01CFF700
001CFF70
0001BF40
00000400
ENDCHAR
STARTCHAR equal
ENCODING 61
SWIDTH 539 0
DWIDTH 9 0
BBX 7 6 1 3
BITMAP
55555530
FFFFFF90
CCCCCC70
22222210
FFFFFF90
FFFFFF90
ENDCHAR
STARTCHAR greater
ENCODING 62
SWIDTH 478 0
DWIDTH 8 0
BBX 7 10 0 1
BITMAP
02A10000
1DFC1000
06FFB000
006FFB00
0006FFA0
000AFF90
01BFF900
1CFF8000
09F70000
00400000
ENDCHAR
STARTCHAR question
ENCODING 63
SWIDTH 603 0
DWIDTH 10 0
BBX 10 13 0 -1
BITMAP
1333331000
6FFFFFFA10
6FFFFFFF90
0000017FF1
0000003FF1
00006AEFC0
000AFFFD30
003FF96100
006FC00000
0024300000
006FB00000
009FE00000
0017300000
ENDCHAR
STARTCHAR at
ENCODING 64
SWIDTH 629 0
DWIDTH 10 0
BBX 10 10 0 -1
BITMAP
0005996100
01CFEEFD30
0AF6139EC0
3F77FFF5F5
5F3EAAF1F8
5F4DDCF7F7
1EA4BCCCC2
06FB540000
005EFF3000
0001441000
ENDCHAR
STARTCHAR A
ENCODING 65
SWIDTH 673 0
DWIDTH 11 0
BBX 10 12 0 0
BITMAP
0000131000
003BFFFA10
02EFFFFFC1
0AFD416FF7
0FF50009FC
1FF20006FD
1FF20005FD
1FF8777AFD
1FFFFFFFFD
1FFCBBBDFD
1FF20005FD
1FF20005FD
ENDCHAR
STARTCHAR B
ENCODING 66
SWIDTH 666 0
DWIDTH 11 0
BBX 9 12 1 0
BITMAP
3333331000
EFFFFFF800
EFFFFFFF70
EF50018FE0
EF40005FE0
EFCBBBEF90
EFFFFFFF20
EFA888DFB0
EF40005FF0
EF7444AFD0
EFFFFFFF50
EFFFFFD500
ENDCHAR
STARTCHAR C
ENCODING 67
SWIDTH 640 0
DWIDTH 10 0
BBX 10 13 0 -1
BITMAP
0000145300
0019FFFFD5
01DFFEEFFA
0BFE6002B2
3FF5000000
7FC0000000
8FA0000000
6FD0000000
2FF6000000
0AFF8104D3
01CFFFFFFB
0008EFFFB3
0000023100
ENDCHAR
STARTCHAR D
ENCODING 68
SWIDTH 653 0
DWIDTH 10 0
BBX 9 12 1 0
BITMAP
3333100000
EFFFFB4000
EFFFFFF600
EF514CFF30
EF4001DFA0
EF40005FD0
EF40004FF0
EF40007FD0
EF4002EF80
EF747EFE20
EFFFFFE400
EFFFD82000
ENDCHAR
STARTCHAR E
ENCODING 69
SWIDTH 578 0
DWIDTH 9 0
BBX 8 12 1 0
BITMAP
33333332
EFFFFFFB
EFFFFFFB
EF500000
EF400000
EFCBBA00
EFFFFF00
EFA88700
EF400000
EF744443
EFFFFFFB
EFFFFFFB
ENDCHAR
STARTCHAR F
ENCODING 70
SWIDTH 562 0
DWIDTH 9 0
BBX 8 12 1 0
BITMAP
33333333
EFFFFFFD
EFFFFFFD
EF500000
EF400000
EFCBB700
EFFFFA00
EFA88500
EF400000
EF400000
EF400000
EF400000
ENDCHAR
STARTCHAR G
ENCODING 71
SWIDTH 665 0
DWIDTH 11 0
BBX 10 13 0 -1
BITMAP
0000134200
0019FFFFC4
01DFFFEFFA
0BFE6003B2
3FF5000000
7FC0000000
8FA0000288
6FD00003FE
2FF60003FE
0AFF7106FE
01CFFFFFFE
0008EFFFB3
0000023100
ENDCHAR
STARTCHAR H
ENCODING 72
SWIDTH 689 0
DWIDTH 11 0
BBX 9 12 1 0
BITMAP
3310001330
EF40004FF0
EF40004FF0
EF40004FF0
EF40004FF0
EFCBBBCFF0
EFFFFFFFF0
EFA8889FF0
EF40004FF0
EF40004FF0
EF40004FF0
EF40004FF0
ENDCHAR
STARTCHAR I
ENCODING 73
SWIDTH 270 0
DWIDTH 4 0
BBX 3 12 1 0
BITMAP
3310
EF40
EF40
EF40
EF40
EF40
EF40
EF40
EF40
EF40
EF40
EF40
ENDCHAR
STARTCHAR J
ENCODING 74
SWIDTH 416 0
DWIDTH 7 0
BBX 6 12 0 0
BITMAP
000132
0007FC
0007FC
0007FC
0007FC
0007FC
0007FC
0007FB
000BF9
55AFF4
DFFF90
CFC500
ENDCHAR
STARTCHAR K
ENCODING 75
SWIDTH 625 0
DWIDTH 10 0
BBX 9 12 1 0
BITMAP
3310002330
EF4002EF70
EF400CFB00
EF408FD100
EF45FF4000
EF6EF90000
EFEFFE1000
EFFDEF8000
EFF47FF200
EF700DFA00
EF4005FF30
EF4000CFB0
ENDCHAR
STARTCHAR L
ENCODING 76
SWIDTH 562 0
DWIDTH 9 0
BBX 8 12 1 0
BITMAP
33100000
EF400000
EF400000
EF400000
EF400000
EF400000
EF400000
EF400000
EF400000
EF744443
EFFFFFFD
EFFFFFFD
ENDCHAR
STARTCHAR M
ENCODING 77
SWIDTH 819 0
DWIDTH 13 0
BBX 12 12 1 0
BITMAP
003520144000
1BFFFAEFFC20
9FFEFFFEFFB0
EF60BFD04FF1
FF308FA01FF2
FF308FA01FF2
FF308FA01FF2
FF308FA01FF2
FF308FA01FF2
FF308FA01FF2
FF308FA01FF2
FF308FA01FF2
ENDCHAR
STARTCHAR N
ENCODING 78
SWIDTH 689 0
DWIDTH 11 0
BBX 9 12 1 0
BITMAP
3310001330
EFC0004FF0
EFF7004FF0
EFFE104FF0
EFEF904FF0
EF7FF34FF0
EF49FC4FF0
EF41EF9FF0
EF407FFFF0
EF400DFFF0
EF4004FFF0
EF4000AFF0
ENDCHAR
STARTCHAR O
ENCODING 79
SWIDTH 777 0
DWIDTH 12 0
BBX 12 13 0 -1
BITMAP
000014520000
0019FFFFC400
01DFFEEFFF60
0BFE6002BFF3
3FF500000DFA
7FC0000005FD
8FA0000003FF
6FD0000006FD
2FF600001DF9
0AFF8104DFE2
01CFFFFFFF50
0008EFFFB300
000002310000
ENDCHAR
STARTCHAR P
ENCODING 80
SWIDTH 642 0
DWIDTH 10 0
BBX 9 12 1 0
BITMAP
3333310000
EFFFFFB200
EFFFFFFD10
EF5015EF90
EF40007FD0
EF40004FF0
EF4000AFC0
EF978BFF60
EFFFFFF800
EFCBB94000
EF40000000
EF40000000
ENDCHAR
STARTCHAR Q
ENCODING 81
SWIDTH 777 0
DWIDTH 12 0
BBX 12 15 0 -3
BITMAP
000014520000
0019FFFFC400
01DFFEEFFF60
0BFE6002BFF3
3FF500000DFA
7FC0000005FD
8FA0000003FF
6FD0000006FD
2FF600001DF9
0AFF8104DFE2
01CFFFFFFF50
0008EFFFE300
0000025FF500
00000008FE10
000000004420
ENDCHAR
STARTCHAR R
ENCODING 82
SWIDTH 651 0
DWIDTH 10 0
BBX 9 12 1 0
BITMAP
3333310000
EFFFFFB200
EFFFFFFD10
EF5015EF90
EF40007FD0
EF40004FE0
EF4000AFC0
EF978BFF60
EFFFFFF900
EFCBCFF200
EF400DF800
EF4007FE00
ENDCHAR
STARTCHAR S
ENCODING 83
SWIDTH 610 0
DWIDTH 10 0
BBX 10 12 0 0
BITMAP
0003333330
04EFFFFFD0
2EFFFFFFD0
8FD2000000
9FB0000000
4FFCBBA400
08FFFFFF70
004788BFF2
0000000EF5
0444447FF3
0FFFFFFFB0
0FFFFFE910
ENDCHAR
STARTCHAR T
ENCODING 84
SWIDTH 578 0
DWIDTH 9 0
BBX 10 12 0 0
BITMAP
3333333330
DFFFFFFFF2
DFFFFFFFF2
0008FB0000
0007FB0000
0007FB0000
0007FB0000
0007FB0000
0007FB0000
0007FB0000
0007FB0000
0007FB0000
ENDCHAR
STARTCHAR U
ENCODING 85
SWIDTH 673 0
DWIDTH 11 0
BBX 10 12 0 0
BITMAP
0330000133
1FF20005FD
1FF20005FD
1FF20005FD
1FF20005FD
1FF20005FD
1FF20005FD
1FF30006FD
0EF6000AFB
08FE749FF6
01CFFFFFA0
0018DFD600
ENDCHAR
STARTCHAR V
ENCODING 86
SWIDTH 602 0
DWIDTH 10 0
BBX 10 12 0 0
BITMAP
3320000332
BFC0002FF6
6FF1007FF1
2FF600CFB0
0CFA01FF60
07FE06FF10
02FF4AFB00
00CF9EF600
007FFFF100
002FFFB000
000CFF6000
0007FF1000
ENDCHAR
STARTCHAR W
ENCODING 87
SWIDTH 819 0
DWIDTH 13 0
BBX 12 13 1 -1
BITMAP
331023200330
FF308FA01FF2
FF308FA01FF2
FF308FA01FF2
FF308FA01FF2
FF308FA01FF2
FF308FA01FF2
FF308FA01FF2
FF309FA01FF2
EF82CFD37FF1
8FFFFFFFFF90
08FFD7DFF910
001200011000
ENDCHAR
STARTCHAR X
ENCODING 88
SWIDTH 608 0
DWIDTH 10 0
BBX 10 12 0 0
BITMAP
3320000332
9FF2006FF5
1EFB01EFB0
05FF59FE20
00BFEFF700
002FFFD000
000BFF7000
004FFFE100
00DFCEF900
07FF37FF30
2EF900DFC0
AFE1004FF7
ENDCHAR
STARTCHAR Y
ENCODING 89
SWIDTH 620 0
DWIDTH 10 0
BBX 10 12 0 0
BITMAP
2320000231
8FB0000CF7
8FB0000CF7
8FB0000CF7
7FC0000DF6
4FF4005FF3
0CFFBBFFB0
02CFFFFC10
0006FF5000
0002FF1000
0002FF1000
0002FF1000
ENDCHAR
STARTCHAR Z
ENCODING 90
SWIDTH 586 0
DWIDTH 9 0
BBX 10 12 0 0
BITMAP
2333333330
9FFFFFFFA0
9FFFFFFF20
00002FF900
00009FF200
0003FF8000
000AFE1000
003FF70000
00BFE10000
04FF944440
0CFFFFFFF1
5FFFFFFFF1
ENDCHAR
STARTCHAR bracketleft
ENCODING 91
SWIDTH 380 0
DWIDTH 6 0
BBX 5 15 1 -2
BITMAP
CCCC60
FFFF80
FF9730
FF4000
FF4000
FF4000
FF4000
FF4000
FF4000
FF4000
FF4000
FF4000
FFBA50
FFFF80
999950
ENDCHAR
STARTCHAR backslash
ENCODING 92
SWIDTH 490 0
DWIDTH 8 0
BBX 8 12 0 0
BITMAP
23200000
4FF10000
0DF70000
06FD0000
01EF4000
009FA000
003FF200
000CF800
0005FE00
0000EF50
00008FC0
00002FF3
ENDCHAR
STARTCHAR bracketright
ENCODING 93
SWIDTH 380 0
DWIDTH 6 0
BBX 6 15 0 -2
BITMAP
5CCCC1
6FFFF1
378FF1
003FF1
003FF1
003FF1
003FF1
003FF1
003FF1
003FF1
003FF1
003FF1
4ABFF1
6FFFF1
499991
ENDCHAR
STARTCHAR asciicircum
ENCODING 94
SWIDTH 293 0
DWIDTH 5 0
BBX 5 5 0 7
BITMAP
001000
07E300
8FFE40
8B3D40
000100
ENDCHAR
STARTCHAR underscore
ENCODING 95
SWIDTH 598 0
DWIDTH 10 0
BBX 8 3 1 -4
BITMAP
36666660
7FFFFFF1
5BBBBBB1
ENDCHAR
STARTCHAR grave
ENCODING 96
SWIDTH 225 0
DWIDTH 4 0
BBX 4 3 0 8
BITMAP
4D20
AFE3
06E3
ENDCHAR
STARTCHAR a
ENCODING 97
SWIDTH 607 0
DWIDTH 10 0
BBX 9 10 0 -1
BITMAP
0028A82040
04FFFFF9E0
1EFC8BFFE0
7FD000AFE0
9F90004FE0
8FA0006FE0
4FF504EFE0
0BFFFFFFE0
019FFF92C0
0000210000
ENDCHAR
STARTCHAR b
ENCODING 98
SWIDTH 597 0
DWIDTH 10 0
BBX 10 13 0 -1
BITMAP
4B80000000
5FC0000000
5FC0000000
5FC5A95000
5FFFFFFC10
5FFE99FF80
5FF3005FE1
5FD0000FF2
4FE0002FF2
1EF912BFC0
06FFFFFF30
005DFFD400
0000210000
ENDCHAR
STARTCHAR c
ENCODING 99
SWIDTH 521 0
DWIDTH 8 0
BBX 8 10 0 -1
BITMAP
0027A830
04EFFFF7
1DFD8BFC
6FD10081
9F900000
9FA00010
4FF503D4
0AFFFFFD
008EFFA2
00002100
ENDCHAR
STARTCHAR d
ENCODING 100
SWIDTH 606 0
DWIDTH 10 0
BBX 9 13 0 -1
BITMAP
0000003BA0
0000004FE0
0000004FE0
0028A86FE0
04EFFFFFE0
1EFC8BFFE0
7FD000AFE0
9F80005FE0
8FA0007FE0
4FF614EFE0
0AFFFFFFE0
008EFF92C0
0000210000
ENDCHAR
STARTCHAR e
ENCODING 101
SWIDTH 524 0
DWIDTH 8 0
BBX 8 10 0 -1
BITMAP
0028A930
05FFFFF8
1EFC8EFC
7FD07FD2
9F94FF30
8FBEF510
4FFF83D5
0AFFFFFD
008EFFA2
00002100
ENDCHAR
STARTCHAR f
ENCODING 102
SWIDTH 395 0
DWIDTH 6 0
BBX 7 13 0 0
BITMAP
00026760
005EFFB0
02FFC970
08FB0000
4BFB6610
AFFFFF20
7EFDBB20
09F80000
09F80000
09F80000
09F80000
09F80000
09F80000
ENDCHAR
STARTCHAR g
ENCODING 103
SWIDTH 607 0
DWIDTH 10 0
BBX 9 13 0 -4
BITMAP
0028A82040
04EFFFF9E0
1EFC8BFFE0
7FD000AFE0
9F90004FE0
8FA0006FE0
4FF614EFE0
0AFFFFFFE0
018FFFDFD0
000023CF90
0006EFFE20
0006FFB200
0001310000
ENDCHAR
STARTCHAR h
ENCODING 104
SWIDTH 562 0
DWIDTH 9 0
BBX 9 12 0 0
BITMAP
2BA0000000
3FE0000000
3FE0000000
3FE4761000
3FFFFFD200
3FFEADFC00
3FF302FF30
3FE000DF40
3FE000DF40
3FE000DF40
3FE000DF40
3FE000DF40
ENDCHAR
STARTCHAR i
ENCODING 105
SWIDTH 235 0
DWIDTH 4 0
BBX 4 12 0 0
BITMAP
3ED1
7FF4
1A90
1650
3FF0
3FF0
3FF0
3FF0
3FF0
3FF0
3FF0
3FF0
ENDCHAR
STARTCHAR j
ENCODING 106
SWIDTH 237 0
DWIDTH 4 0
BBX 7 16 -3 -4
BITMAP
0003ED10
0007FF50
0001A900
00016600
0003FF00
0003FF00
0003FF00
0003FF00
0003FF00
0003FF00
0003FF00
0004FE00
002CFA00
5EFFE200
6FFB3000
13100000
ENDCHAR
STARTCHAR k
ENCODING 107
SWIDTH 539 0
DWIDTH 9 0
BBX 9 12 0 0
BITMAP
2BA0000000
3FF0000000
3FF0000000
3FF0005520
3FF008FD10
3FF05FE200
3FF2EF5000
3FFDFE1000
3FFFFF9000
3FFE5FF300
3FF40AFB00
3FF002FF50
ENDCHAR
STARTCHAR l
ENCODING 108
SWIDTH 235 0
DWIDTH 4 0
BBX 3 12 0 0
BITMAP
2BA0
3FF0
3FF0
3FF0
3FF0
3FF0
3FF0
3FF0
3FF0
3FF0
3FF0
3FF0
ENDCHAR
STARTCHAR m
ENCODING 109
SWIDTH 762 0
DWIDTH 12 0
BBX 12 9 0 0
BITMAP
132662167300
3EEFFEDFFF80
3FFCCFFDBFF3
3FF10EF40BF6
3FE00EF30AF7
3FE00EF30AF7
3FE00EF30AF7
3FE00EF30AF7
3FE00EF30AF7
ENDCHAR
STARTCHAR n
ENCODING 110
SWIDTH 562 0
DWIDTH 9 0
BBX 9 9 0 0
BITMAP
1305761000
3ECFFFD200
3FFEADFC00
3FF302FF30
3FE000DF40
3FE000DF40
3FE000DF40
3FE000DF40
3FE000DF40
ENDCHAR
STARTCHAR o
ENCODING 111
SWIDTH 579 0
DWIDTH 9 0
BBX 9 10 0 -1
BITMAP
0028A94000
04EFFFF800
1EFC8BFF40
7FD0009FB0
9F80005FD0
8FA0006FC0
4FF613DF80
0AFFFFFD10
007EFFA100
0000210000
ENDCHAR
STARTCHAR p
ENCODING 112
SWIDTH 608 0
DWIDTH 10 0
BBX 10 13 0 -4
BITMAP
13049A6100
3EAFFFFD20
3FFF98EFB0
3FF5002FF3
3FF0000CF5
3FF2000EF4
3FFB219FE1
3FFFFFFF70
3FFBFFE600
3FF0120000
3FF0000000
3FF0000000
1330000000
ENDCHAR
STARTCHAR q
ENCODING 113
SWIDTH 607 0
DWIDTH 10 0
BBX 9 13 0 -4
BITMAP
0028A82040
05FFFFF9E0
1EFC8BFFE0
7FD000AFE0
9F90004FE0
8FA0006FE0
4FF514EFE0
0AFFFFFFE0
008FFFBFE0
0001214FE0
0000004FE0
0000004FE0
0000001330
ENDCHAR
STARTCHAR r
ENCODING 114
SWIDTH 414 0
DWIDTH 7 0
BBX 7 9 0 0
BITMAP
13035520
3DAFFF70
3FFFCC50
3FF40000
3FF00000
3FE00000
3FE00000
3FE00000
3FE00000
ENDCHAR
STARTCHAR s
ENCODING 115
SWIDTH 523 0
DWIDTH 8 0
BBX 8 9 0 0
BITMAP
00355553
0AFFFFF8
4FFCCCC6
6FC22200
2FFFFFD3
05CFFFFD
122224FF
7FFFFFFB
7FFFFFB2
ENDCHAR
STARTCHAR t
ENCODING 116
SWIDTH 437 0
DWIDTH 7 0
BBX 7 12 0 0
BITMAP
08B40000
0BF60000
0BF60000
4CF95530
CFFFFF90
9EFDCC70
0BF60000
0BF60000
0BF70000
07FD4210
01DFFF90
001AEF90
ENDCHAR
STARTCHAR u
ENCODING 117
SWIDTH 562 0
DWIDTH 9 0
BBX 9 10 0 -1
BITMAP
2650005610
4FC000EF30
4FC000EF30
4FC000EF30
4FC000EF30
4FD000FF30
2FF508FF30
09FFFFFF30
019FFE6A30
0001200000
ENDCHAR
STARTCHAR v
ENCODING 118
SWIDTH 532 0
DWIDTH 9 0
BBX 9 9 0 0
BITMAP
5630005620
AFB003FF30
4FF109FC00
0DF70EF600
08FC4FF100
02FFBFA000
00CFFF4000
006FFD0000
001EF80000
ENDCHAR
STARTCHAR w
ENCODING 119
SWIDTH 756 0
DWIDTH 12 0
BBX 12 10 0 -1
BITMAP
155005510452
4FD00FF20BF6
4FD00FF20BF6
4FD00FF20BF6
4FD00FF20BF6
4FD00FF20BF6
2FF24FF51EF4
0CFFFFFFFFD1
02BFFA9FFC30
000110011000
ENDCHAR
STARTCHAR x
ENCODING 120
SWIDTH 528 0
DWIDTH 8 0
BBX 9 9 0 0
BITMAP
6640016620
5FF30BFC00
09FD7FE200
01DFFF5000
003FFA0000
008FFE1000
04FFCFB000
1EF82EF700
AFD106FF30
ENDCHAR
STARTCHAR y
ENCODING 121
SWIDTH 562 0
DWIDTH 9 0
BBX 9 13 0 -4
BITMAP
2650005610
4FC000EF30
4FC000EF30
4FC000EF30
4FC000EF30
4FD000FF30
2FF508FF30
09FFFFFF30
019FFEFF20
00013AFD00
002EFFF400
003FFD4000
0003200000
ENDCHAR
STARTCHAR z
ENCODING 122
SWIDTH 481 0
DWIDTH 8 0
BBX 8 9 0 0
BITMAP
35555551
9FFFFFD0
7CCCFF40
0008FB00
002FF300
00AF9000
03FF3221
0CFFFFF5
5FFFFFF5
ENDCHAR
STARTCHAR braceleft
ENCODING 123
SWIDTH 466 0
DWIDTH 7 0
BBX 7 15 0 -2
BITMAP
0007BCB0
005FFFD0
009FC760
009FA000
009FA000
00BF9000
8DFF4000
AFFB0000
47EF6000
00AF9000
009FA000
009FA000
009FDA90
004FFFD0
00049980
ENDCHAR
STARTCHAR bar
ENCODING 124
SWIDTH 267 0
DWIDTH 4 0
BBX 3 15 1 -2
BITMAP
CC30
FF40
FF40
FF40
FF40
FF40
FF40
FF40
FF40
FF40
FF40
FF40
FF40
FF40
9920
ENDCHAR
STARTCHAR braceright
ENCODING 125
SWIDTH 466 0
DWIDTH 7 0
BBX 8 15 0 -2
BITMAP
5CCA2000
6FFFC000
378FF100
003FF100
003FF100
002FF300
000BFEC2
0004FFF3
000EFA61
002FF200
003FF100
003FF100
4ABFF100
6FFFB000
49971000
ENDCHAR
STARTCHAR asciitilde
ENCODING 126
SWIDTH 451 0
DWIDTH 7 0
BBX 7 4 0 4
BITMAP
01511420
1EFE8F70
3FCCFF40
09517500
ENDCHAR
STARTCHAR nonbreakingspace
ENCODING 160
SWIDTH 279 0
DWIDTH 4 0
BBX 1 1 0 0
BITMAP
00
ENDCHAR
STARTCHAR exclamdown
ENCODING 161
SWIDTH 274 0
DWIDTH 4 0
BBX 4 13 0 -3
BITMAP
0460
1FF7
0DF5
0340
0BF2
0CF3
0CF3
0DF4
0EF5
0FF6
1FF7
2FF8
1442
ENDCHAR
STARTCHAR cent
ENCODING 162
SWIDTH 462 0
DWIDTH 7 0
BBX 7 12 0 0
BITMAP
00022000
000AB000
000BC000
03DFFE30
0DF87E80
4F800300
5F600000
2FC21A20
08FFFF80
005DE500
000AB000
000AB000
ENDCHAR
STARTCHAR sterling
ENCODING 163
SWIDTH 681 0
DWIDTH 11 0
BBX 11 12 0 0
BITMAP
000013100000
0008FF500000
007FFF500000
00DF91000000
00FF40000000
26FF95000000
4FFFFD000000
3BFFC9000000
00FF40005520
00FF7446FF40
00FFFFFFFB00
00FFFFFE9100
ENDCHAR
STARTCHAR currency
ENCODING 164
SWIDTH 454 0
DWIDTH 7 0
BBX 7 7 0 2
BITMAP
06000520
5FDFDF90
0CC5AF10
0E602F20
0CB17F10
4FFFFF70
18131720
ENDCHAR
STARTCHAR yen
ENCODING 165
SWIDTH 653 0
DWIDTH 10 0
BBX 10 12 0 0
BITMAP
1330000232
4FF00008FB
4FF00008FB
4FF00008FB
3FF10009FA
1EF8002EF7
08FFCAEFD1
02AFFFFE51
0DFFFFFFF5
0CFFFFFFF5
0000DF5000
0000DF5000
ENDCHAR
STARTCHAR brokenbar
ENCODING 166
SWIDTH 269 0
DWIDTH 4 0
BBX 3 15 1 -2
BITMAP
CC30
FF40
FF40
FF40
FF40
FF40
9920
0000
CC30
FF40
FF40
FF40
FF40
FF40
9930
ENDCHAR
STARTCHAR section
ENCODING 167
SWIDTH 569 0
DWIDTH 9 0
BBX 9 12 0 0
BITMAP
0003333200
04EFFFFC00
0EFEEEEB00
1FF5442000
0DFFFFF700
0EFEDDFF30
1FF311DF50
0DFFFFFF20
03CFFFFF30
022233DF50
2FFFFFFF20
2FFFFFD500
ENDCHAR
STARTCHAR dieresis
ENCODING 168
SWIDTH 300 0
DWIDTH 5 0
BBX 5 3 0 8
BITMAP
440430
EE1FB0
550640
ENDCHAR
STARTCHAR copyright
ENCODING 169
SWIDTH 655 0
DWIDTH 11 0
BBX 10 10 0 1
BITMAP
0000120000
003BFFE800
03E8455DA0
0C79ECD1E5
3E4D10107A
4D7900005C
2F4D20208A
0B98EEC2E4
02DB667E70
0018DEB400
ENDCHAR
STARTCHAR ordfeminine
ENCODING 170
SWIDTH 451 0
DWIDTH 7 0
BBX 7 9 0 3
BITMAP
00252100
06FEED00
0E708F00
0F405F00
0BC6DF00
02AD9700
01111100
1FFFFF10
03333300
ENDCHAR
STARTCHAR guillemotleft
ENCODING 171
SWIDTH 704 0
DWIDTH 11 0
BBX 11 8 0 0
BITMAP
0004D3006C10
003EF706FF50
03EF805FF500
3EF805FF5000
3EFA05FF8000
02DFB14EF900
002DF804EF50
000191003800
ENDCHAR
STARTCHAR logicalnot
ENCODING 172
SWIDTH 529 0
DWIDTH 8 0
BBX 8 4 0 3
BITMAP
0BBBBBB6
1FFFFFF8
06666CF7
000009F7
ENDCHAR
STARTCHAR uni00AD
ENCODING 173
SWIDTH 418 0
DWIDTH 7 0
BBX 5 3 1 4
BITMAP
BBBB80
FFFFC0
666650
ENDCHAR
STARTCHAR registered
ENCODING 174
SWIDTH 439 0
DWIDTH 7 0
BBX 7 7 0 5
BITMAP
00141000
06C9B700
2AA9AA20
56A1B560
39AB8840
09B4B900
00475000
ENDCHAR
STARTCHAR macron
ENCODING 175
SWIDTH 247 0
DWIDTH 4 0
BBX 4 3 0 8
BITMAP
3333
FFFE
7776
ENDCHAR
STARTCHAR degree
ENCODING 176
SWIDTH 381 0
DWIDTH 6 0
BBX 6 5 0 6
BITMAP
05DD60
2FDDF4
6F43F7
3FDCF4
06EE70
ENDCHAR
STARTCHAR plusminus
ENCODING 177
SWIDTH 516 0
DWIDTH 8 0
BBX 8 9 0 0
BITMAP
00088200
000EF300
1BBFFCB4
2FFFFFF6
166EF862
000EF300
02233221
2FFFFFF6
2FFFFFF6
ENDCHAR
STARTCHAR twosuperior
ENCODING 178
SWIDTH 355 0
DWIDTH 6 0
BBX 5 7 0 5
BITMAP
033200
0EFF70
058DD0
0BFF80
2FB730
2FFFB0
144430
ENDCHAR
STARTCHAR threesuperior
ENCODING 179
SWIDTH 354 0
DWIDTH 6 0
BBX 5 7 0 5
BITMAP
033200
1FFF80
078DE0
07FFB0
068DE0
1FFF90
044300
ENDCHAR
STARTCHAR acute
ENCODING 180
SWIDTH 225 0
DWIDTH 4 0
BBX 4 3 0 8
BITMAP
06C1
7FF5
9B20
ENDCHAR
STARTCHAR mu
ENCODING 181
SWIDTH 571 0
DWIDTH 9 0
BBX 8 13 1 -4
BITMAP
66100463
FF200AF7
FF200AF7
FF200AF7
FF200AF7
FF200BF7
FF904FF7
FFFFFFF7
FEEFF877
FC021000
FB000000
FB000000
85000000
ENDCHAR
STARTCHAR paragraph
ENCODING 182
SWIDTH 808 0
DWIDTH 13 0
BBX 12 12 0 0
BITMAP
000023333332
005DFFFFFFFC
05FFFFFFFFFC
1EFB39FA07FC
4FF109FA07FC
5FE009FA07FC
3FF409FA07FC
0BFF9CFA07FC
02CFFFFA07FC
0006ADFA07FC
000009FA07FC
000009FA07FC
ENDCHAR
STARTCHAR periodcentered
ENCODING 183
SWIDTH 261 0
DWIDTH 4 0
BBX 4 3 0 4
BITMAP
0BC2
3FF5
0891
ENDCHAR
STARTCHAR cedilla
ENCODING 184
SWIDTH 208 0
DWIDTH 3 0
BBX 4 5 0 -4
BITMAP
0430
0C60
19F3
CDF3
4950
ENDCHAR
STARTCHAR onesuperior
ENCODING 185
SWIDTH 231 0
DWIDTH 4 0
BBX 3 7 0 5
BITMAP
1320
4FB0
1DB0
0CB0
0CB0
0CB0
0330
ENDCHAR
STARTCHAR ordmasculine
ENCODING 186
SWIDTH 432 0
DWIDTH 7 0
BBX 6 9 0 3
BITMAP
003520
06FEF5
0E708D
1F405E
0BC6DA
01AD91
011111
1FFFFF
033333
ENDCHAR
STARTCHAR guillemotright
ENCODING 187
SWIDTH 703 0
DWIDTH 11 0
BBX 11 8 0 0
BITMAP
09A001B70000
2EF904FF7000
02EF904FF600
002EF805FF60
004EF807FF60
06FF708FF500
2FF604FE4000
056000830000
ENDCHAR
STARTCHAR onequarter
ENCODING 188
SWIDTH 648 0
DWIDTH 10 0
BBX 10 12 0 0
BITMAP
0331001310
0DF300AE10
08F303F800
05F30BE100
05F35F6000
05F3DD0000
0147F68300
001EB4F7F4
008F36F5F4
01EA08FAF9
09F20AFFFC
2F800004F4
ENDCHAR
STARTCHAR onehalf
ENCODING 189
SWIDTH 637 0
DWIDTH 10 0
BBX 10 12 0 0
BITMAP
0331001310
0DF300AE10
08F303F800
05F30BE100
05F35F6000
05F3DD0000
0147F68850
001EB3FFF6
008F3059F8
01EA03FFC2
09F206F984
2F8006FFF7
ENDCHAR
STARTCHAR threequarters
ENCODING 190
SWIDTH 708 0
DWIDTH 11 0
BBX 11 12 0 0
BITMAP
133100013100
4FFF500AE100
178EA03F7000
0AFF80BD0000
178EA5F60000
4FFF6DC00000
14436F683000
0001EB5F8F40
0008F37F5F40
002E909FAF80
009E20BFFFC0
03F800004F40
ENDCHAR
STARTCHAR questiondown
ENCODING 191
SWIDTH 602 0
DWIDTH 10 0
BBX 9 13 0 -3
BITMAP
0000055000
00004FF300
00002EE200
0000044000
00002FF100
0026BFD000
06FFFF5000
2FFDA40000
6FD0000000
6FE2000000
1EFFFFFFF0
04DFFFFFF0
0003444440
ENDCHAR
STARTCHAR Agrave
ENCODING 192
SWIDTH 673 0
DWIDTH 11 0
BBX 10 15 0 0
BITMAP
000A900000
003EFA0000
0001AB0000
0000131000
003BFFFA10
02EFFFFFC1
0AFD416FF7
0FF50009FC
1FF20006FD
1FF20005FD
1FF8777AFD
1FFFFFFFFD
1FFCBBBDFD
1FF20005FD
1FF20005FD
ENDCHAR
STARTCHAR Aacute
ENCODING 193
SWIDTH 673 0
DWIDTH 11 0
BBX 10 15 0 0
BITMAP
000001C600
00002DFC00
00002D7000
0000131000
003BFFFA10
02EFFFFFC1
0AFD416FF7
0FF50009FC
1FF20006FD
1FF20005FD
1FF8777AFD
1FFFFFFFFD
1FFCBBBDFD
1FF20005FD
1FF20005FD
ENDCHAR
STARTCHAR Acircumflex
ENCODING 194
SWIDTH 673 0
DWIDTH 11 0
BBX 10 15 0 0
BITMAP
00005D2000
0006FFE300
000392B200
0000131000
003BFFFA10
02EFFFFFC1
0AFD416FF7
0FF50009FC
1FF20006FD
1FF20005FD
1FF8777AFD
1FFFFFFFFD
1FFCBBBDFD
1FF20005FD
1FF20005FD
ENDCHAR
STARTCHAR Atilde
ENCODING 195
SWIDTH 673 0
DWIDTH 11 0
BBX 10 14 0 0
BITMAP
000BF89E00
002FCEFD00
0009569300
003BFFFA10
02EFFFFFC1
0AFD416FF7
0FF50009FC
1FF20006FD
1FF20005FD
1FF8777AFD
1FFFFFFFFD
1FFCBBBDFD
1FF20005FD
1FF20005FD
ENDCHAR
STARTCHAR Adieresis
ENCODING 196
SWIDTH 673 0
DWIDTH 11 0
BBX 10 14 0 0
BITMAP
0004405200
000EE1FB00
0005637300
003BFFFA10
02EFFFFFC1
0AFD416FF7
0FF50009FC
1FF20006FD
1FF20005FD
1FF8777AFD
1FFFFFFFFD
1FFCBBBDFD
1FF20005FD
1FF20005FD
ENDCHAR
STARTCHAR Aring
ENCODING 197
SWIDTH 673 0
DWIDTH 11 0
BBX 10 14 0 0
BITMAP
00006B4000
0001E7D000
0000DDB000
002BFFF910
02EFFFFFC0
0AFD416FF7
0EF50009FC
1FF20006FD
1FF20005FD
1FF8777AFD
1FFFFFFFFD
1FFCBBBDFD
1FF20005FD
1FF20005FD
ENDCHAR
STARTCHAR AE
ENCODING 198
SWIDTH 988 0
DWIDTH 16 0
BBX 16 12 0 0
BITMAP
0000133333333331
003BFFFFFFFFFFF4
02EFFFFFFFFFFFF4
0AFD4106FD000000
0FF50006FD000000
1FF20006FEBBB600
1FF20006FFFFF800
1FF8777AFE888400
1FFFFFFFFD000000
1FFCBBBDFE444441
1FF20006FFFFFFF4
1FF20006FFFFFFF4
ENDCHAR
STARTCHAR Ccedilla
ENCODING 199
SWIDTH 640 0
DWIDTH 10 0
BBX 10 16 0 -4
BITMAP
0000145300
0019FFFFD5
01DFFEEFFA
0BFE6002B2
3FF5000000
7FC0000000
8FA0000000
7FD0000000
2FF6000000
09FF8104D3
01BFFFFFFB
0008EFFFB3
00004D5100
00004DB000
0004DEB000
0001782000
ENDCHAR
STARTCHAR Egrave
ENCODING 200
SWIDTH 578 0
DWIDTH 9 0
BBX 8 15 1 0
BITMAP
01D50000
06FF6000
003C8000
33333332
EFFFFFFB
EFFFFFFB
EF500000
EF400000
EFCBBA00
EFFFFF00
EFA88700
EF400000
EF744443
EFFFFFFB
EFFFFFFB
ENDCHAR
STARTCHAR Eacute
ENCODING 201
SWIDTH 578 0
DWIDTH 9 0
BBX 8 15 1 0
BITMAP
00005D10
0006FF60
0008C300
33333332
EFFFFFFB
EFFFFFFB
EF500000
EF400000
EFCBBA00
EFFFFF00
EFA88700
EF400000
EF744443
EFFFFFFB
EFFFFFFB
ENDCHAR
STARTCHAR Ecircumflex
ENCODING 202
SWIDTH 578 0
DWIDTH 9 0
BBX 8 15 1 0
BITMAP
001C8000
01CFF900
00936700
33333332
EFFFFFFB
EFFFFFFB
EF500000
EF400000
EFCBBA00
EFFFFF00
EFA88700
EF400000
EF744443
EFFFFFFB
EFFFFFFB
ENDCHAR
STARTCHAR Edieresis
ENCODING 203
SWIDTH 578 0
DWIDTH 9 0
BBX 8 14 1 0
BITMAP
01612500
07F69F30
34A45A32
EFFFFFFB
EFFFFFFB
EF500000
EF400000
EFCBBA00
EFFFFF00
EFA88700
EF400000
EF744443
EFFFFFFB
EFFFFFFB
ENDCHAR
STARTCHAR Igrave
ENCODING 204
SWIDTH 270 0
DWIDTH 4 0
BBX 5 15 -1 0
BITMAP
1C7000
4FF800
02B900
003310
00EF40
00EF40
00EF40
00EF40
00EF40
00EF40
00EF40
00EF40
00EF40
00EF40
00EF40
ENDCHAR
STARTCHAR Iacute
ENCODING 205
SWIDTH 270 0
DWIDTH 4 0
BBX 4 15 1 0
BITMAP
03D3
4EF8
5D50
3310
EF40
EF40
EF40
EF40
EF40
EF40
EF40
EF40
EF40
EF40
EF40
ENDCHAR
STARTCHAR Icircumflex
ENCODING 206
SWIDTH 270 0
DWIDTH 4 0
BBX 5 15 0 0
BITMAP
08C100
9FFC10
673A00
033100
0EF400
0EF400
0EF400
0EF400
0EF400
0EF400
0EF400
0EF400
0EF400
0EF400
0EF400
ENDCHAR
STARTCHAR Idieresis
ENCODING 207
SWIDTH 270 0
DWIDTH 4 0
BBX 6 14 -1 0
BITMAP
052061
3FB4F8
066482
00EF40
00EF40
00EF40
00EF40
00EF40
00EF40
00EF40
00EF40
00EF40
00EF40
00EF40
ENDCHAR
STARTCHAR Eth
ENCODING 208
SWIDTH 672 0
DWIDTH 11 0
BBX 11 12 0 0
BITMAP
023331000000
0AFFFFD60000
0AFFFFFFA000
0AF9129FF700
0AF90009FE00
AEFDA001FF30
EFFFE000EF40
6CFC6002FF30
0AF9000BFD00
0AFB46CFF500
0AFFFFFF7000
0AFFFDA30000
ENDCHAR
STARTCHAR Ntilde
ENCODING 209
SWIDTH 689 0
DWIDTH 11 0
BBX 9 15 1 0
BITMAP
009FA7F100
00FDEFE000
0095284000
3310001330
EFC0004FF0
EFF7004FF0
EFFE104FF0
EFEF904FF0
EF7FF34FF0
EF49FC4FF0
EF41EF9FF0
EF407FFFF0
EF400DFFF0
EF4004FFF0
EF4000AFF0
ENDCHAR
STARTCHAR Ograve
ENCODING 210
SWIDTH 777 0
DWIDTH 12 0
BBX 12 16 0 -1
BITMAP
0000C7000000
0004EF800000
00002BA00000
000014520000
0019FFFFC400
01DFFEEFFF60
0BFE6002BFF3
3FF500000DFA
7FC0000005FD
8FA0000003FF
6FD0000006FD
2FF600001DF9
0AFF8104DFE2
01CFFFFFFF50
0008EFFFB300
000002310000
ENDCHAR
STARTCHAR Oacute
ENCODING 211
SWIDTH 777 0
DWIDTH 12 0
BBX 12 16 0 -1
BITMAP
0000002D5000
000002DFB000
000003E60000
000014520000
0019FFFFC400
01DFFEEFFF60
0BFE6002BFF3
3FF500000DFA
7FC0000005FD
8FA0000003FF
6FD0000006FD
2FF600001DF9
0AFF8104DFE2
01CFFFFFFF50
0008EFFFB300
000002310000
ENDCHAR
STARTCHAR Ocircumflex
ENCODING 212
SWIDTH 777 0
DWIDTH 12 0
BBX 12 16 0 -1
BITMAP
000007C10000
00008FFD2000
0000582A0000
000014520000
0019FFFFC400
01DFFEEFFF60
0BFE6002BFF3
3FF500000DFA
7FC0000005FD
8FA0000003FF
6FD0000006FD
2FF600001DF9
0AFF8104DFE2
01CFFFFFFF50
0008EFFFB300
000002310000
ENDCHAR
STARTCHAR Otilde
ENCODING 213
SWIDTH 777 0
DWIDTH 12 0
BBX 12 16 0 -1
BITMAP
0001DF6BB000
0005FCFFA000
0002A3482000
000014520000
0019FFFFC400
01DFFEEFFF60
0BFE6002BFF3
3FF500000DFA
7FC0000005FD
8FA0000003FF
6FD0000006FD
2FF600001DF9
0AFF8104DFE2
01CFFFFFFF50
0008EFFFB300
000002310000
ENDCHAR
STARTCHAR Odieresis
ENCODING 214
SWIDTH 777 0
DWIDTH 12 0
BBX 12 15 0 -1
BITMAP
000053051000
0002FB4F8000
000077592000
0019FFFFC400
01DFFEEFFF60
0BFE6002BFF3
3FF500000DFA
7FC0000005FD
8FA0000003FF
6FD0000006FD
2FF600001DF9
0AFF8104DFE2
01CFFFFFFF50
0008EFFFB300
000002310000
ENDCHAR
STARTCHAR multiply
ENCODING 215
SWIDTH 479 0
DWIDTH 8 0
BBX 7 7 0 2
BITMAP
02601800
1DF8CFA0
08FFFE30
01EFF900
1CFFFF70
08E38F50
00200200
ENDCHAR
STARTCHAR Oslash
ENCODING 216
SWIDTH 777 0
DWIDTH 12 0
BBX 12 13 0 -1
BITMAP
000014520331
0019FFFFDFC1
01DFFEEFFF80
0BFE600BFFF3
3FF5007FACFA
7FC003FD16FE
8FA01DF404FF
7FD0AF7006FD
2FFAFB001DF9
0AFFF304DFE2
01FFFFFFFF50
08FCEFFFB300
000002310000
ENDCHAR
STARTCHAR Ugrave
ENCODING 217
SWIDTH 673 0
DWIDTH 11 0
BBX 10 15 0 0
BITMAP
0008B10000
001DFB1000
00018D1000
0330000133
1FF20005FD
1FF20005FD
1FF20005FD
1FF20005FD
1FF20005FD
1FF20005FD
1FF30006FD
0EF6000AFB
08FE749FF6
01CFFFFFA0
0018DFD600
ENDCHAR
STARTCHAR Uacute
ENCODING 218
SWIDTH 673 0
DWIDTH 11 0
BBX 10 15 0 0
BITMAP
000001B700
00001CFD10
00001D8100
0330000133
1FF20005FD
1FF20005FD
1FF20005FD
1FF20005FD
1FF20005FD
1FF20005FD
1FF30006FD
0EF6000AFB
08FE749FF6
01CFFFFFA0
0018DFD600
ENDCHAR
STARTCHAR Ucircumflex
ENCODING 219
SWIDTH 673 0
DWIDTH 11 0
BBX 10 15 0 0
BITMAP
00005D2000
0006FFE300
000392B200
0330000133
1FF20005FD
1FF20005FD
1FF20005FD
1FF20005FD
1FF20005FD
1FF20005FD
1FF30006FD
0EF6000AFB
08FE749FF6
01CFFFFFA0
0018DFD600
ENDCHAR
STARTCHAR Udieresis
ENCODING 220
SWIDTH 673 0
DWIDTH 11 0
BBX 10 14 0 0
BITMAP
0004405200
000EE1FB00
0335506533
1FF20005FD
1FF20005FD
1FF20005FD
1FF20005FD
1FF20005FD
1FF20005FD
1FF30006FD
0EF6000AFB
08FE749FF6
01CFFFFFA0
0018DFD600
ENDCHAR
STARTCHAR Yacute
ENCODING 221
SWIDTH 620 0
DWIDTH 10 0
BBX 10 15 0 0
BITMAP
000005D100
00006FF600
00007C3000
2320000231
8FB0000CF7
8FB0000CF7
8FB0000CF7
7FC0000DF6
4FF4005FF3
0CFFBBFFB0
02CFFFFC10
0006FF5000
0002FF1000
0002FF1000
0002FF1000
ENDCHAR
STARTCHAR Thorn
ENCODING 222
SWIDTH 637 0
DWIDTH 10 0
BBX 9 13 1 -1
BITMAP
AA30000000
EF51100000
EFFFFE9100
EFFFFFFD10
EF6237FF80
EF40007FD0
EF40004FF0
EF40009FD0
EF856AFF70
EFFFFFFA00
EFEDDB5000
EF40000000
7720000000
ENDCHAR
STARTCHAR germandbls
ENCODING 223
SWIDTH 813 0
DWIDTH 13 0
BBX 13 13 0 0
BITMAP
00026787300000
005EFFFFF70000
02FFC99BFF2000
08FB0000DF5000
4BF80037FF3000
AFF80AFFFB0000
7EF84FFB710000
09F86FC2222000
09F82FFFFFFC20
09F804CEFFFFA0
09F80122227FD0
09F80CFFFFFF90
09F80CFFFFE910
ENDCHAR
STARTCHAR agrave
ENCODING 224
SWIDTH 607 0
DWIDTH 10 0
BBX 9 13 0 -1
BITMAP
005C100000
00CFD20000
0007E20000
0028A82040
04FFFFF9E0
1EFC8BFFE0
7FD000AFE0
9F90004FE0
8FA0006FE0
4FF504EFE0
0BFFFFFFE0
019FFF92C0
0000210000
ENDCHAR
STARTCHAR aacute
ENCODING 225
SWIDTH 607 0
DWIDTH 10 0
BBX 9 13 0 -1
BITMAP
00000A9000
0001BFE200
0001C91000
0028A82040
04FFFFF9E0
1EFC8BFFE0
7FD000AFE0
9F90004FE0
8FA0006FE0
4FF504EFE0
0BFFFFFFE0
019FFF92C0
0000210000
ENDCHAR
STARTCHAR acircumflex
ENCODING 226
SWIDTH 607 0
DWIDTH 10 0
BBX 9 13 0 -1
BITMAP
0003D50000
003EFF6000
001A294000
0028A82040
04FFFFF9E0
1EFC8BFFE0
7FD000AFE0
9F90004FE0
8FA0006FE0
4FF504EFE0
0BFFFFFFE0
019FFF92C0
0000210000
ENDCHAR
STARTCHAR atilde
ENCODING 227
SWIDTH 607 0
DWIDTH 10 0
BBX 9 13 0 -1
BITMAP
008FB6F200
00EEDFF200
0086185000
0028A82040
04FFFFF9E0
1EFC8BFFE0
7FD000AFE0
9F90004FE0
8FA0006FE0
4FF504EFE0
0BFFFFFFE0
019FFF92C0
0000210000
ENDCHAR
STARTCHAR adieresis
ENCODING 228
SWIDTH 607 0
DWIDTH 10 0
BBX 9 13 0 -1
BITMAP
0026034000
00BF3CF000
0037045000
0028A82040
04FFFFF9E0
1EFC8BFFE0
7FD000AFE0
9F90004FE0
8FA0006FE0
4FF504EFE0
0BFFFFFFE0
019FFF92C0
0000210000
ENDCHAR
STARTCHAR aring
ENCODING 229
SWIDTH 607 0
DWIDTH 10 0
BBX 9 14 0 -1
BITMAP
0000410000
000ADD1000
000D7E2000
0004B70000
0028A82040
04FFFFF9E0
1EFC8BFFE0
7FD000AFE0
9F90004FE0
8FA0006FE0
4FF504EFE0
0BFFFFFFE0
019FFF92C0
0000210000
ENDCHAR
STARTCHAR ae
ENCODING 230
SWIDTH 976 0
DWIDTH 16 0
BBX 16 10 0 -1
BITMAP
0028A820417A9500
04FFFFF9EDFFFFB0
1EFC8BFFFFE8DFE2
7FD000AFFF24FF40
9F90004FFC2EF600
8FA0006FFDBF8100
4FF504EFFFFB2B80
0BFFFFFFFFFFFFF2
019FFF92C6EFFC30
0000210000021000
ENDCHAR
STARTCHAR ccedilla
ENCODING 231
SWIDTH 521 0
DWIDTH 8 0
BBX 8 13 0 -4
BITMAP
0027A830
04EFFFF7
1DFD8BFC
6FD10081
9F900000
9FA00010
4FF503D4
0AFFFFFD
008EFFA2
0003D200
0004DC00
004EEC00
00178200
ENDCHAR
STARTCHAR egrave
ENCODING 232
SWIDTH 524 0
DWIDTH 8 0
BBX 8 13 0 -1
BITMAP
008B1000
01DFC100
0018D100
0028A930
05FFFFF8
1EFC8EFC
7FD07FD2
9F94FF30
8FBEF510
4FFF83D5
0AFFFFFD
008EFFA2
00002100
ENDCHAR
STARTCHAR eacute
ENCODING 233
SWIDTH 524 0
DWIDTH 8 0
BBX 8 13 0 -1
BITMAP
00000A90
0001BFD1
0001D910
0028A930
05FFFFF8
1EFC8EFC
7FD07FD2
9F94FF30
8FBEF510
4FFF83D5
0AFFFFFD
008EFFA2
00002100
ENDCHAR
STARTCHAR ecircumflex
ENCODING 234
SWIDTH 524 0
DWIDTH 8 0
BBX 8 13 0 -1
BITMAP
0007C100
008FFD20
00582A10
0028A930
05FFFFF8
1EFC8EFC
7FD07FD2
9F94FF30
8FBEF510
4FFF83D5
0AFFFFFD
008EFFA2
00002100
ENDCHAR
STARTCHAR edieresis
ENCODING 235
SWIDTH 524 0
DWIDTH 8 0
BBX 8 13 0 -1
BITMAP
00530520
01FC3F90
00640720
0028A930
05FFFFF8
1EFC8EFC
7FD07FD2
9F94FF30
8FBEF510
4FFF83D5
0AFFFFFD
008EFFA2
00002100
ENDCHAR
STARTCHAR igrave
ENCODING 236
SWIDTH 235 0
DWIDTH 4 0
BBX 4 12 -1 0
BITMAP
2D40
8FE4
04D6
0165
03FF
03FF
03FF
03FF
03FF
03FF
03FF
03FF
ENDCHAR
STARTCHAR iacute
ENCODING 237
SWIDTH 235 0
DWIDTH 4 0
BBX 5 12 0 0
BITMAP
006C10
07FF50
09B200
166000
3FF000
3FF000
3FF000
3FF000
3FF000
3FF000
3FF000
3FF000
ENDCHAR
STARTCHAR icircumflex
ENCODING 238
SWIDTH 235 0
DWIDTH 4 0
BBX 5 12 -1 0
BITMAP
01B900
1CFFA0
094680
016500
03FF00
03FF00
03FF00
03FF00
03FF00
03FF00
03FF00
03FF00
ENDCHAR
STARTCHAR idieresis
ENCODING 239
SWIDTH 235 0
DWIDTH 4 0
BBX 6 11 -1 0
BITMAP
161250
7F69F4
187870
03FF00
03FF00
03FF00
03FF00
03FF00
03FF00
03FF00
03FF00
ENDCHAR
STARTCHAR eth
ENCODING 240
SWIDTH 581 0
DWIDTH 9 0
BBX 9 14 0 -1
BITMAP
0002330000
0038FF6320
00EFFFFFA0
00899EFC60
00179DFC00
04EFFFFF30
1EFC8BFF80
7FD0009FB0
9F80005FD0
8FA0006FC0
4FF613DF80
0AFFFFFD10
007EFFA100
0000210000
ENDCHAR
STARTCHAR ntilde
ENCODING 241
SWIDTH 562 0
DWIDTH 9 0
BBX 9 12 0 0
BITMAP
009FA7F100
00FDEFE100
0085284000
1305761000
3ECFFFD200
3FFEADFC00
3FF302FF30
3FE000DF40
3FE000DF40
3FE000DF40
3FE000DF40
3FE000DF40
ENDCHAR
STARTCHAR ograve
ENCODING 242
SWIDTH 579 0
DWIDTH 9 0
BBX 9 13 0 -1
BITMAP
006C100000
00CFD20000
0007D20000
0028A94000
04EFFFF800
1EFC8BFF40
7FD0009FB0
9F80005FD0
8FA0006FC0
4FF613DF80
0AFFFFFD10
007EFFA100
0000210000
ENDCHAR
STARTCHAR oacute
ENCODING 243
SWIDTH 579 0
DWIDTH 9 0
BBX 9 13 0 -1
BITMAP
00000A9000
0001BFD100
0001C91000
0028A94000
04EFFFF800
1EFC8BFF40
7FD0009FB0
9F80005FD0
8FA0006FC0
4FF613DF80
0AFFFFFD10
007EFFA100
0000210000
ENDCHAR
STARTCHAR ocircumflex
ENCODING 244
SWIDTH 579 0
DWIDTH 9 0
BBX 9 13 0 -1
BITMAP
0003D50000
003EFF6000
001A294000
0028A94000
04EFFFF800
1EFC8BFF40
7FD0009FB0
9F80005FD0
8FA0006FC0
4FF613DF80
0AFFFFFD10
007EFFA100
0000210000
ENDCHAR
STARTCHAR otilde
ENCODING 245
SWIDTH 579 0
DWIDTH 9 0
BBX 9 13 0 -1
BITMAP
008FB6F200
00EDDFF100
0086185000
0028A94000
04EFFFF800
1EFC8BFF40
7FD0009FB0
9F80005FD0
8FA0006FC0
4FF613DF80
0AFFFFFD10
007EFFA100
0000210000
ENDCHAR
STARTCHAR odieresis
ENCODING 246
SWIDTH 579 0
DWIDTH 9 0
BBX 9 13 0 -1
BITMAP
0025034000
00BF2DF000
0036045000
0028A94000
04EFFFF800
1EFC8BFF40
7FD0009FB0
9F80005FD0
8FA0006FC0
4FF613DF80
0AFFFFFD10
007EFFA100
0000210000
ENDCHAR
STARTCHAR divide
ENCODING 247
SWIDTH 494 0
DWIDTH 8 0
BBX 8 9 0 1
BITMAP
00066000
002FF100
00087000
4BBBBBB3
5FFFFFF4
26677661
001ED000
001ED000
00011000
ENDCHAR
STARTCHAR oslash
ENCODING 248
SWIDTH 579 0
DWIDTH 9 0
BBX 9 10 0 -1
BITMAP
0028A86750
04EFFFFF30
1EFC8EFF40
7FD07FEFB0
9F83FD6FD0
8FBDF36FC0
4FFF73DF80
0CFFFFFD10
3FEEFFA100
0000210000
ENDCHAR
STARTCHAR ugrave
ENCODING 249
SWIDTH 562 0
DWIDTH 9 0
BBX 9 13 0 -1
BITMAP
009A000000
01DFB10000
0019D10000
2650005610
4FC000EF30
4FC000EF30
4FC000EF30
4FC000EF30
4FD000FF30
2FF508FF30
09FFFFFF30
019FFE6A30
0001200000
ENDCHAR
STARTCHAR uacute
ENCODING 250
SWIDTH 562 0
DWIDTH 9 0
BBX 9 13 0 -1
BITMAP
00001B7000
0001CFD100
0001D80000
2650005610
4FC000EF30
4FC000EF30
4FC000EF30
4FC000EF30
4FD000FF30
2FF508FF30
09FFFFFF30
019FFE6A30
0001200000
ENDCHAR
STARTCHAR ucircumflex
ENCODING 251
SWIDTH 562 0
DWIDTH 9 0
BBX 9 13 0 -1
BITMAP
0004D30000
005FFE4000
003A1A2000
2650005610
4FC000EF30
4FC000EF30
4FC000EF30
4FC000EF30
4FD000FF30
2FF508FF30
09FFFFFF30
019FFE6A30
0001200000
ENDCHAR
STARTCHAR udieresis
ENCODING 252
SWIDTH 562 0
DWIDTH 9 0
BBX 9 13 0 -1
BITMAP
0044043000
00EF1FC000
0055064000
2650005610
4FC000EF30
4FC000EF30
4FC000EF30
4FC000EF30
4FD000FF30
2FF508FF30
09FFFFFF30
019FFE6A30
0001200000
ENDCHAR
STARTCHAR yacute
ENCODING 253
SWIDTH 562 0
DWIDTH 9 0
BBX 9 16 0 -4
BITMAP
00001C7000
0001CFC000
0002D70000
2650005610
4FC000EF30
4FC000EF30
4FC000EF30
4FC000EF30
4FD000FF30
2FF508FF30
09FFFFFF30
019FFEFF20
00013AFD00
002EFFF400
003FFD4000
0003200000
ENDCHAR
STARTCHAR thorn
ENCODING 254
SWIDTH 608 0
DWIDTH 10 0
BBX 10 16 0 -4
BITMAP
2DD1000000
3FF1000000
3FF1000000
3FF5996100
3FFFFFFD20
3FFF98EFB0
3FF5002FF3
3FF0000CF5
3FF2000EF4
3FFB219FF1
3FFFFFFF80
3FFBFFE600
3FF0120000
3FF0000000
3FF0000000
1330000000
ENDCHAR
STARTCHAR ydieresis
ENCODING 255
SWIDTH 562 0
DWIDTH 9 0
BBX 9 16 0 -4
BITMAP
0044043000
00EF1FC000
0055064000
2650005610
4FC000EF30
4FC000EF30
4FC000EF30
4FC000EF30
4FD000FF30
2FF508FF30
09FFFFFF30
019FFEFF20
00013AFD00
002EFFF400
003FFD4000
0003200000
ENDCHAR
STARTCHAR Amacron
ENCODING 256
SWIDTH 673 0
DWIDTH 11 0
BBX 10 14 0 0
BITMAP
0002333100
0009FFF500
0004897200
003BFFFA10
02EFFFFFC1
0AFD416FF7
0FF50009FC
1FF20006FD
1FF20005FD
1FF8777AFD
1FFFFFFFFD
1FFCBBBDFD
1FF20005FD
1FF20005FD
ENDCHAR
STARTCHAR amacron
ENCODING 257
SWIDTH 607 0
DWIDTH 10 0
BBX 9 13 0 -1
BITMAP
0013332000
007FFF8000
0037773000
0028A82040
04FFFFF9E0
1EFC8BFFE0
7FD000AFE0
9F90004FE0
8FA0006FE0
4FF504EFE0
0BFFFFFFE0
019FFF92C0
0000210000
ENDCHAR
STARTCHAR Abreve
ENCODING 258
SWIDTH 673 0
DWIDTH 11 0
BBX 10 14 0 0
BITMAP
0005D5D000
0003FFD000
0000482000
003BFFFA10
02EFFFFFC1
0AFD416FF7
0FF50009FC
1FF20006FD
1FF20005FD
1FF8777AFD
1FFFFFFFFD
1FFCBBBDFD
1FF20005FD
1FF20005FD
ENDCHAR
STARTCHAR abreve
ENCODING 259
SWIDTH 607 0
DWIDTH 10 0
BBX 9 13 0 -1
BITMAP
003D4D2000
002EFE1000
0002520000
0028A82040
04FFFFF9E0
1EFC8BFFE0
7FD000AFE0
9F90004FE0
8FA0006FE0
4FF504EFE0
0BFFFFFFE0
019FFF92C0
0000210000
ENDCHAR
STARTCHAR Aogonek
ENCODING 260
SWIDTH 673 0
DWIDTH 11 0
BBX 11 15 0 -3
BITMAP
000013100000
003BFFFA1000
02EFFFFFC100
0AFD416FF700
0FF50009FC00
1FF20006FD00
1FF20005FD00
1FF8777AFD00
1FFFFFFFFD00
1FFCBBBDFD00
1FF20005FD00
1FF20005FD00
00000007C000
0000000CDB20
00000005CA20
ENDCHAR
STARTCHAR aogonek
ENCODING 261
SWIDTH 607 0
DWIDTH 10 0
BBX 10 12 0 -3
BITMAP
0028A82040
04FFFFF9E0
1EFC8BFFE0
7FD000AFE0
9F90004FE0
8FA0006FE0
4FF504EFE0
0BFFFFFFE0
019FFF93E0
0000210C80
0000002FCA
00000008C8
ENDCHAR
STARTCHAR Cacute
ENCODING 262
SWIDTH 640 0
DWIDTH 10 0
BBX 10 16 0 -1
BITMAP
0000006D10
000007FF50
000008C300
0000145300
0019FFFFD5
01DFFEEFFA
0BFE6002B2
3FF5000000
7FC0000000
8FA0000000
6FD0000000
2FF6000000
0AFF8104D3
01CFFFFFFB
0008EFFFB3
0000023100
ENDCHAR
STARTCHAR cacute
ENCODING 263
SWIDTH 521 0
DWIDTH 8 0
BBX 8 13 0 -1
BITMAP
00001C60
0002CFC0
0002D700
0027A830
04EFFFF7
1DFD8BFC
6FD10081
9F900000
9FA00010
4FF503D4
0AFFFFFD
008EFFA2
00002100
ENDCHAR
STARTCHAR Ccircumflex
ENCODING 264
SWIDTH 640 0
DWIDTH 10 0
BBX 10 16 0 -1
BITMAP
00001B9000
0001CFFA00
0000946800
0000145300
0019FFFFD5
01DFFEEFFA
0BFE6002B2
3FF5000000
7FC0000000
8FA0000000
6FD0000000
2FF6000000
0AFF8104D3
01CFFFFFFB
0008EFFFB3
0000023100
ENDCHAR
STARTCHAR ccircumflex
ENCODING 265
SWIDTH 521 0
DWIDTH 8 0
BBX 8 13 0 -1
BITMAP
0003D400
003EFF50
002A1A30
0027A830
04EFFFF7
1DFD8BFC
6FD10081
9F900000
9FA00010
4FF503D4
0AFFFFFD
008EFFA2
00002100
ENDCHAR
STARTCHAR Cdotaccent
ENCODING 266
SWIDTH 640 0
DWIDTH 10 0
BBX 10 15 0 -1
BITMAP
0000047000
00000CF100
0000179300
0019FFFFD5
01DFFEEFFA
0BFE6002B2
3FF5000000
7FC0000000
8FA0000000
6FD0000000
2FF6000000
0AFF8104D3
01CFFFFFFB
0008EFFFB3
0000023100
ENDCHAR
STARTCHAR cdotaccent
ENCODING 267
SWIDTH 521 0
DWIDTH 8 0
BBX 8 13 0 -1
BITMAP
00018300
0004F900
00005100
0027A830
04EFFFF7
1DFD8BFC
6FD10081
9F900000
9FA00010
4FF503D4
0AFFFFFD
008EFFA2
00002100
ENDCHAR
STARTCHAR Ccaron
ENCODING 268
SWIDTH 640 0
DWIDTH 10 0
BBX 10 17 0 -1
BITMAP
0000100100
0000BB8D10
00004EF800
0000037000
0000145300
0019FFFFD5
01DFFEEFFA
0BFE6002B2
3FF5000000
7FC0000000
8FA0000000
6FD0000000
2FF6000000
0AFF8104D3
01CFFFFFFB
0008EFFFB3
0000023100
ENDCHAR
STARTCHAR ccaron
ENCODING 269
SWIDTH 521 0
DWIDTH 8 0
BBX 8 14 0 -1
BITMAP
00010100
003E6D70
001BFD20
00008200
0027A830
04EFFFF7
1DFD8BFC
6FD10081
9F900000
9FA00010
4FF503D4
0AFFFFFD
008EFFA2
00002100
ENDCHAR
STARTCHAR Dcaron
ENCODING 270
SWIDTH 653 0
DWIDTH 10 0
BBX 9 16 1 0
BITMAP
0011010000
009C7E2000
003EF90000
0002800000
3333100000
EFFFFB4000
EFFFFFF600
EF514CFF30
EF4001DFA0
EF40005FD0
EF40004FF0
EF40007FD0
EF4002EF80
EF747EFE20
EFFFFFE400
EFFFD82000
ENDCHAR
STARTCHAR dcaron
ENCODING 271
SWIDTH 740 0
DWIDTH 12 0
BBX 12 13 0 -1
BITMAP
0000003BA021
0000004FE2FB
0000004FE1DB
0028A86FE096
04EFFFFFE000
1EFC8BFFE000
7FD000AFE000
9F80005FE000
8FA0007FE000
4FF614EFE000
0AFFFFFFE000
008EFF92C000
000021000000
ENDCHAR
STARTCHAR Dcroat
ENCODING 272
SWIDTH 672 0
DWIDTH 11 0
BBX 11 12 0 0
BITMAP
023331000000
0AFFFFD60000
0AFFFFFFA000
0AF9129FF700
0AF90009FE00
AEFDA001FF30
EFFFE000EF40
6CFC6002FF30
0AF9000BFD00
0AFB46CFF500
0AFFFFFF7000
0AFFFDA30000
ENDCHAR
STARTCHAR dcroat
ENCODING 273
SWIDTH 606 0
DWIDTH 10 0
BBX 10 13 0 -1
BITMAP
0000005BA3
000002FFFB
000001EFFA
0028A86FE0
04EFFFFFE0
1EFC8BFFE0
7FD000AFE0
9F80005FE0
8FA0007FE0
4FF614EFE0
0AFFFFFFE0
008EFF92C0
0000210000
ENDCHAR
STARTCHAR Emacron
ENCODING 274
SWIDTH 578 0
DWIDTH 9 0
BBX 8 14 1 0
BITMAP
00333300
00DFFF10
339AAA42
EFFFFFFB
EFFFFFFB
EF500000
EF400000
EFCBBA00
EFFFFF00
EFA88700
EF400000
EF744443
EFFFFFFB
EFFFFFFB
ENDCHAR
STARTCHAR emacron
ENCODING 275
SWIDTH 524 0
DWIDTH 8 0
BBX 8 13 0 -1
BITMAP
00133320
007FFF80
00377730
0028A930
05FFFFF8
1EFC8EFC
7FD07FD2
9F94FF30
8FBEF510
4FFF83D5
0AFFFFFD
008EFFA2
00002100
ENDCHAR
STARTCHAR Ebreve
ENCODING 276
SWIDTH 578 0
DWIDTH 9 0
BBX 8 14 1 0
BITMAP
00B7A700
00AFF600
33387332
EFFFFFFB
EFFFFFFB
EF500000
EF400000
EFCBBA00
EFFFFF00
EFA88700
EF400000
EF744443
EFFFFFFB
EFFFFFFB
ENDCHAR
STARTCHAR ebreve
ENCODING 277
SWIDTH 524 0
DWIDTH 8 0
BBX 8 13 0 -1
BITMAP
004D4D10
002FFE10
00025200
0028A930
05FFFFF8
1EFC8EFC
7FD07FD2
9F94FF30
8FBEF510
4FFF83D5
0AFFFFFD
008EFFA2
00002100
ENDCHAR
STARTCHAR Edotaccent
ENCODING 278
SWIDTH 578 0
DWIDTH 9 0
BBX 8 14 1 0
BITMAP
00065000
000FD000
33376332
EFFFFFFB
EFFFFFFB
EF500000
EF400000
EFCBBA00
EFFFFF00
EFA88700
EF400000
EF744443
EFFFFFFB
EFFFFFFB
ENDCHAR
STARTCHAR edotaccent
ENCODING 279
SWIDTH 524 0
DWIDTH 8 0
BBX 8 13 0 -1
BITMAP
00018200
0006F700
00015100
0028A930
05FFFFF8
1EFC8EFC
7FD07FD2
9F94FF30
8FBEF510
4FFF83D5
0AFFFFFD
008EFFA2
00002100
ENDCHAR
STARTCHAR Eogonek
ENCODING 280
SWIDTH 578 0
DWIDTH 9 0
BBX 8 15 1 -3
BITMAP
33333332
EFFFFFFB
EFFFFFFB
EF500000
EF400000
EFCBBA00
EFFFFF00
EFA88700
EF400000
EF744443
EFFFFFFB
EFFFFFFB
00004E10
00009EC3
00003CB3
ENDCHAR
STARTCHAR eogonek
ENCODING 281
SWIDTH 524 0
DWIDTH 8 0
BBX 8 12 0 -3
BITMAP
0028A930
05FFFFF8
1EFC8EFC
7FD07FD2
9F94FF30
8FBEF510
4FFF83D5
0AFFFFFD
008EFFB2
00007E10
0000AEC3
00003CA3
ENDCHAR
STARTCHAR Ecaron
ENCODING 282
SWIDTH 578 0
DWIDTH 9 0
BBX 8 16 1 0
BITMAP
00100100
01D8AB00
007FF500
00055000
33333332
EFFFFFFB
EFFFFFFB
EF500000
EF400000
EFCBBA00
EFFFFF00
EFA88700
EF400000
EF744443
EFFFFFFB
EFFFFFFB
ENDCHAR
STARTCHAR ecaron
ENCODING 283
SWIDTH 524 0
DWIDTH 8 0
BBX 8 14 0 -1
BITMAP
00010100
005E6E50
001CFD10
00018100
0028A930
05FFFFF8
1EFC8EFC
7FD07FD2
9F94FF30
8FBEF510
4FFF83D5
0AFFFFFD
008EFFA2
00002100
ENDCHAR
STARTCHAR Gcircumflex
ENCODING 284
SWIDTH 665 0
DWIDTH 11 0
BBX 10 16 0 -1
BITMAP
00001B9000
0000BFFA00
0000845800
0000134200
0019FFFFC4
01DFFFEFFA
0BFE6003B2
3FF5000000
7FC0000000
8FA0000288
6FD00003FE
2FF60003FE
0AFF7106FE
01CFFFFFFE
0008EFFFB3
0000023100
ENDCHAR
STARTCHAR gcircumflex
ENCODING 285
SWIDTH 607 0
DWIDTH 10 0
BBX 9 16 0 -4
BITMAP
0003D40000
003EFF5000
001A294000
0028A82040
04EFFFF9E0
1EFC8BFFE0
7FD000AFE0
9F90004FE0
8FA0006FE0
4FF614EFE0
0AFFFFFFE0
018FFFDFD0
000023CF90
0006EFFE20
0006FFB200
0001310000
ENDCHAR
STARTCHAR Gbreve
ENCODING 286
SWIDTH 665 0
DWIDTH 11 0
BBX 10 15 0 -1
BITMAP
0000998A00
00007FF900
0000189300
0019FFFFC4
01DFFFEFFA
0BFE6003B2
3FF5000000
7FC0000000
8FA0000288
6FD00003FE
2FF60003FE
0AFF7106FE
01CFFFFFFE
0008EFFFB3
0000023100
ENDCHAR
STARTCHAR gbreve
ENCODING 287
SWIDTH 607 0
DWIDTH 10 0
BBX 9 16 0 -4
BITMAP
002D4D3000
001EFF2000
0001530000
0028A82040
04EFFFF9E0
1EFC8BFFE0
7FD000AFE0
9F90004FE0
8FA0006FE0
4FF614EFE0
0AFFFFFFE0
018FFFDFD0
000023CF90
0006EFFE20
0006FFB200
0001310000
ENDCHAR
STARTCHAR Gdotaccent
ENCODING 288
SWIDTH 665 0
DWIDTH 11 0
BBX 10 15 0 -1
BITMAP
0000065000
00000FE000
0000178200
0019FFFFC4
01DFFFEFFA
0BFE6003B2
3FF5000000
7FC0000000
8FA0000288
6FD00003FE
2FF60003FE
0AFF7106FE
01CFFFFFFE
0008EFFFB3
0000023100
ENDCHAR
STARTCHAR gdotaccent
ENCODING 289
SWIDTH 607 0
DWIDTH 10 0
BBX 9 16 0 -4
BITMAP
0001820000
0006F70000
0000510000
0028A82040
04EFFFF9E0
1EFC8BFFE0
7FD000AFE0
9F90004FE0
8FA0006FE0
4FF614EFE0
0AFFFFFFE0
018FFFDFD0
000023CF90
0006EFFE20
0006FFB200
0001310000
ENDCHAR
STARTCHAR Gcommaaccent
ENCODING 290
SWIDTH 665 0
DWIDTH 11 0
BBX 10 16 0 -4
BITMAP
0000134200
0019FFFFC4
01DFFFEFFA
0BFE6003B2
3FF5000000
7FC0000000
8FA0000288
6FD00003FE
2FF60003FE
0AFF7106FE
01CFFFFFFE
0008EFFFB3
0000045100
00001EE000
00000BE000
0000068000
ENDCHAR
STARTCHAR gcommaaccent
ENCODING 291
SWIDTH 607 0
DWIDTH 10 0
BBX 9 17 0 -4
BITMAP
0001900000
0006E30000
0007F80000
0001610000
0028A82040
04EFFFF9E0
1EFC8BFFE0
7FD000AFE0
9F90004FE0
8FA0006FE0
4FF614EFE0
0AFFFFFFE0
018FFFDFD0
000023CF90
0006EFFE20
0006FFB200
0001310000
ENDCHAR
STARTCHAR Hcircumflex
ENCODING 292
SWIDTH 689 0
DWIDTH 11 0
BBX 9 14 1 0
BITMAP
0004D40000
004FFF4000
333A1A3330
EF40004FF0
EF40004FF0
EF40004FF0
EF40004FF0
EFCBBBCFF0
EFFFFFFFF0
EFA8889FF0
EF40004FF0
EF40004FF0
EF40004FF0
EF40004FF0
ENDCHAR
STARTCHAR hcircumflex
ENCODING 293
SWIDTH 562 0
DWIDTH 9 0
BBX 9 12 0 0
BITMAP
2BA04D3000
3FE5FFE400
3FE3A1A200
3FE4761000
3FFFFFD200
3FFEADFC00
3FF302FF30
3FE000DF40
3FE000DF40
3FE000DF40
3FE000DF40
3FE000DF40
ENDCHAR
STARTCHAR Hbar
ENCODING 294
SWIDTH 689 0
DWIDTH 11 0
BBX 11 12 0 0
BITMAP
033100013300
0EF40004FF00
9FFDCCCDFFA0
BFFFFFFFFFC0
3FF74447FF40
0EFCBBBCFF00
0EFFFFFFFF00
0EFA8889FF00
0EF40004FF00
0EF40004FF00
0EF40004FF00
0EF40004FF00
ENDCHAR
STARTCHAR hbar
ENCODING 295
SWIDTH 562 0
DWIDTH 9 0
BBX 9 12 0 0
BITMAP
4BA2000000
FFFB000000
CFF8000000
3FE4761000
3FFFFFD200
3FFEADFC00
3FF302FF30
3FE000DF40
3FE000DF40
3FE000DF40
3FE000DF40
3FE000DF40
ENDCHAR
STARTCHAR Itilde
ENCODING 296
SWIDTH 270 0
DWIDTH 4 0
BBX 6 14 -1 0
BITMAP
2DE6CA
6FCFF9
295891
00EF40
00EF40
00EF40
00EF40
00EF40
00EF40
00EF40
00EF40
00EF40
00EF40
00EF40
ENDCHAR
STARTCHAR itilde
ENCODING 297
SWIDTH 235 0
DWIDTH 4 0
BBX 6 12 -1 0
BITMAP
5ED4E6
AFCFF5
590770
016500
03FF00
03FF00
03FF00
03FF00
03FF00
03FF00
03FF00
03FF00
ENDCHAR
STARTCHAR Imacron
ENCODING 298
SWIDTH 270 0
DWIDTH 4 0
BBX 5 14 0 0
BITMAP
333300
CFFF20
59A710
0EF400
0EF400
0EF400
0EF400
0EF400
0EF400
0EF400
0EF400
0EF400
0EF400
0EF400
ENDCHAR
STARTCHAR imacron
ENCODING 299
SWIDTH 235 0
DWIDTH 4 0
BBX 5 11 -1 0
BITMAP
033330
1FFFD0
08CC60
03FF00
03FF00
03FF00
03FF00
03FF00
03FF00
03FF00
03FF00
ENDCHAR
STARTCHAR Ibreve
ENCODING 300
SWIDTH 270 0
DWIDTH 4 0
BBX 4 14 0 0
BITMAP
7C6C
5FFC
0682
0EF4
0EF4
0EF4
0EF4
0EF4
0EF4
0EF4
0EF4
0EF4
0EF4
0EF4
ENDCHAR
STARTCHAR ibreve
ENCODING 301
SWIDTH 235 0
DWIDTH 4 0
BBX 4 11 0 0
BITMAP
B8A8
9FF7
1AA0
3FF0
3FF0
3FF0
3FF0
3FF0
3FF0
3FF0
3FF0
ENDCHAR
STARTCHAR Iogonek
ENCODING 302
SWIDTH 270 0
DWIDTH 4 0
BBX 4 15 0 -3
BITMAP
0331
0EF4
0EF4
0EF4
0EF4
0EF4
0EF4
0EF4
0EF4
0EF4
0EF4
0EF4
2E40
6FC6
1AB5
ENDCHAR
STARTCHAR iogonek
ENCODING 303
SWIDTH 235 0
DWIDTH 4 0
BBX 4 15 0 -3
BITMAP
3ED1
7FF4
1A90
1650
3FF0
3FF0
3FF0
3FF0
3FF0
3FF0
3FF0
3FF0
4E20
9EC4
2BB3
ENDCHAR
STARTCHAR Idotaccent
ENCODING 304
SWIDTH 270 0
DWIDTH 4 0
BBX 3 14 1 0
BITMAP
4700
CF10
5710
EF40
EF40
EF40
EF40
EF40
EF40
EF40
EF40
EF40
EF40
EF40
ENDCHAR
STARTCHAR dotlessi
ENCODING 305
SWIDTH 235 0
DWIDTH 4 0
BBX 3 9 0 0
BITMAP
1650
3FF0
3FF0
3FF0
3FF0
3FF0
3FF0
3FF0
3FF0
ENDCHAR
STARTCHAR IJ
ENCODING 306
SWIDTH 687 0
DWIDTH 11 0
BBX 10 12 1 0
BITMAP
3310000330
EF40002FF1
EF40002FF1
EF40002FF1
EF40002FF1
EF40002FF1
EF40002FF1
EF40002FF1
EF40007FE0
EF4347EF90
EF48FFFC10
EF47FD8000
ENDCHAR
STARTCHAR ij
ENCODING 307
SWIDTH 474 0
DWIDTH 8 0
BBX 8 16 0 -4
BITMAP
3ED15FB0
7FF4AFF1
1A903B70
16502640
3FF06FC0
3FF06FC0
3FF06FC0
3FF06FC0
3FF06FC0
3FF06FC0
3FF06FC0
3FF08FA0
0004EF60
08EFFC10
09FFA100
02310000
ENDCHAR
STARTCHAR Jcircumflex
ENCODING 308
SWIDTH 416 0
DWIDTH 7 0
BBX 7 15 0 0
BITMAP
0003D500
003EFF50
001A2940
00013200
0007FC00
0007FC00
0007FC00
0007FC00
0007FC00
0007FC00
0007FB00
000BF900
55AFF400
DFFF9000
CFC50000
ENDCHAR
STARTCHAR jcircumflex
ENCODING 309
SWIDTH 237 0
DWIDTH 4 0
BBX 7 16 -3 -4
BITMAP
0001B900
001CFFA0
00094580
00016600
0003FF00
0003FF00
0003FF00
0003FF00
0003FF00
0003FF00
0003FF00
0004FE00
002CFA00
5EFFE200
6FFB3000
13100000
ENDCHAR
STARTCHAR Kcommaaccent
ENCODING 310
SWIDTH 625 0
DWIDTH 10 0
BBX 9 16 1 -4
BITMAP
3310002330
EF4002EF70
EF400CFB00
EF408FD100
EF45FF4000
EF6EF90000
EFEFFE1000
EFFDEF8000
EFF47FF200
EF700DFA00
EF4005FF30
EF4000CFB0
0001100000
000EE00000
000BE00000
0005900000
ENDCHAR
STARTCHAR kcommaaccent
ENCODING 311
SWIDTH 539 0
DWIDTH 9 0
BBX 9 16 0 -4
BITMAP
2BA0000000
3FF0000000
3FF0000000
3FF0005520
3FF008FD10
3FF05FE200
3FF2EF5000
3FFDFE1000
3FFFFF9000
3FFE5FF300
3FF40AFB00
3FF002FF50
0000200000
000AF40000
0006F40000
0001C00000
ENDCHAR
STARTCHAR kgreenlandic
ENCODING 312
SWIDTH 539 0
DWIDTH 9 0
BBX 9 9 0 0
BITMAP
1660005520
3FF008FD10
3FF05FE200
3FF2EF5000
3FFDFE1000
3FFFFF9000
3FFE5FF300
3FF40AFB00
3FF002FF50
ENDCHAR
STARTCHAR Lacute
ENCODING 313
SWIDTH 562 0
DWIDTH 9 0
BBX 8 14 1 0
BITMAP
0003D300
003EF900
335D5000
EF400000
EF400000
EF400000
EF400000
EF400000
EF400000
EF400000
EF400000
EF744443
EFFFFFFD
EFFFFFFD
ENDCHAR
STARTCHAR lacute
ENCODING 314
SWIDTH 235 0
DWIDTH 4 0
BBX 5 15 0 0
BITMAP
001C60
02DFC0
02D700
2BB000
3FF000
3FF000
3FF000
3FF000
3FF000
3FF000
3FF000
3FF000
3FF000
3FF000
3FF000
ENDCHAR
STARTCHAR Lcommaaccent
ENCODING 315
SWIDTH 562 0
DWIDTH 9 0
BBX 8 16 1 -4
BITMAP
33100000
EF400000
EF400000
EF400000
EF400000
EF400000
EF400000
EF400000
EF400000
EF744443
EFFFFFFD
EFFFFFFD
00030000
007F7000
004E7000
000C2000
ENDCHAR
STARTCHAR lcommaaccent
ENCODING 316
SWIDTH 235 0
DWIDTH 4 0
BBX 3 16 0 -4
BITMAP
2BA0
3FF0
3FF0
3FF0
3FF0
3FF0
3FF0
3FF0
3FF0
3FF0
3FF0
3FF0
0210
1FD0
0CD0
0770
ENDCHAR
STARTCHAR Lcaron
ENCODING 317
SWIDTH 562 0
DWIDTH 9 0
BBX 8 12 1 0
BITMAP
33102000
EF49F400
EF47F400
EF41D000
EF400000
EF400000
EF400000
EF400000
EF400000
EF744443
EFFFFFFD
EFFFFFFD
ENDCHAR
STARTCHAR lcaron
ENCODING 318
SWIDTH 369 0
DWIDTH 6 0
BBX 6 12 0 0
BITMAP
2BA021
3FF2FC
3FF1DC
3FF087
3FF000
3FF000
3FF000
3FF000
3FF000
3FF000
3FF000
3FF000
ENDCHAR
STARTCHAR Ldot
ENCODING 319
SWIDTH 745 0
DWIDTH 12 0
BBX 11 12 1 0
BITMAP
331000000000
EF4000000000
EF4000000000
EF4000000000
EF4000000000
EF400002DA00
EF400007FF20
EF400001A700
EF4000000000
EF7444430000
EFFFFFFD0000
EFFFFFFD0000
ENDCHAR
STARTCHAR ldotaccent
ENCODING 320
SWIDTH 463 0
DWIDTH 7 0
BBX 7 12 0 0
BITMAP
2BA00000
3FF00000
3FF00000
3FF00000
3FF00000
3FF08D40
3FF0EF90
3FF06A30
3FF00000
3FF00000
3FF00000
3FF00000
ENDCHAR
STARTCHAR Lslash
ENCODING 321
SWIDTH 585 0
DWIDTH 9 0
BBX 10 12 0 0
BITMAP
0232000000
09FA000000
09FA000000
09FA000000
09FCB00000
09FFE00000
9FFE500000
DFFA000000
6AFA000000
09FB444441
09FFFFFFF4
09FFFFFFF4
ENDCHAR
STARTCHAR lslash
ENCODING 322
SWIDTH 319 0
DWIDTH 5 0
BBX 5 12 0 0
BITMAP
06B600
08F900
08F900
08F900
08FBB0
09FFF0
8FFE60
DFF900
69F900
08F900
08F900
08F900
ENDCHAR
STARTCHAR Nacute
ENCODING 323
SWIDTH 689 0
DWIDTH 11 0
BBX 9 15 1 0
BITMAP
00001B7000
0001CFD100
0001D80000
3310001330
EFC0004FF0
EFF7004FF0
EFFE104FF0
EFEF904FF0
EF7FF34FF0
EF49FC4FF0
EF41EF9FF0
EF407FFFF0
EF400DFFF0
EF4004FFF0
EF4000AFF0
ENDCHAR
STARTCHAR nacute
ENCODING 324
SWIDTH 562 0
DWIDTH 9 0
BBX 9 12 0 0
BITMAP
000007C000
00008FF400
00009B2000
1305861000
3ECFFFD200
3FFEADFC00
3FF302FF30
3FE000DF40
3FE000DF40
3FE000DF40
3FE000DF40
3FE000DF40
ENDCHAR
STARTCHAR Ncommaaccent
ENCODING 325
SWIDTH 689 0
DWIDTH 11 0
BBX 9 16 1 -4
BITMAP
3310001330
EFC0004FF0
EFF7004FF0
EFFE104FF0
EFEF904FF0
EF7FF34FF0
EF49FC4FF0
EF41EF9FF0
EF407FFFF0
EF400DFFF0
EF4004FFF0
EF4000AFF0
0000300000
0006F70000
0004E70000
0000C20000
ENDCHAR
STARTCHAR ncommaaccent
ENCODING 326
SWIDTH 562 0
DWIDTH 9 0
BBX 9 13 0 -4
BITMAP
1305761000
3ECFFFD200
3FFEADFC00
3FF302FF30
3FE000DF40
3FE000DF40
3FE000DF40
3FE000DF40
3FE000DF40
0000300000
0007F70000
0004E70000
0000C20000
ENDCHAR
STARTCHAR Ncaron
ENCODING 327
SWIDTH 689 0
DWIDTH 11 0
BBX 9 15 1 0
BITMAP
0001010000
005E6E5000
001CFC1000
3311811330
EFC0004FF0
EFF7004FF0
EFFE104FF0
EFEF904FF0
EF7FF34FF0
EF49FC4FF0
EF41EF9FF0
EF407FFFF0
EF400DFFF0
EF4004FFF0
EF4000AFF0
ENDCHAR
STARTCHAR ncaron
ENCODING 328
SWIDTH 562 0
DWIDTH 9 0
BBX 9 13 0 0
BITMAP
0001010000
005E6E5000
001CFC1000
0001810000
1305761000
3ECFFFD200
3FFEADFC00
3FF302FF30
3FE000DF40
3FE000DF40
3FE000DF40
3FE000DF40
3FE000DF40
ENDCHAR
STARTCHAR napostrophe
ENCODING 329
SWIDTH 694 0
DWIDTH 11 0
BBX 11 12 0 0
BITMAP
110000000000
DE1000000000
AF1000000000
4A0304761000
001FCFFFE300
001FFEADFD10
001FF501EF50
001FF100BF60
001FF100BF60
001FF100BF60
001FF100BF60
001FF100BF60
ENDCHAR
STARTCHAR Eng
ENCODING 330
SWIDTH 689 0
DWIDTH 11 0
BBX 9 16 1 -4
BITMAP
3310001330
EFC0004FF0
EFF7004FF0
EFFE104FF0
EFEF904FF0
EF7FF34FF0
EF49FC4FF0
EF41EF9FF0
EF407FFFF0
EF400DFFF0
EF4004FFF0
EF4000BFE0
000215EF90
0009FFFD10
0009FFA100
0001310000
ENDCHAR
STARTCHAR eng
ENCODING 331
SWIDTH 562 0
DWIDTH 9 0
BBX 9 13 0 -4
BITMAP
1305761000
3ECFFFD200
3FFEADFC00
3FF302FF30
3FE000DF40
3FE000DF40
3FE000DF40
3FE000DF40
3FE000EF30
000019FE00
001EFFF500
001FFD4000
0003200000
ENDCHAR
STARTCHAR Omacron
ENCODING 332
SWIDTH 777 0
DWIDTH 12 0
BBX 12 15 0 -1
BITMAP
000023331000
0000BFFF3000
00006AB91000
0019FFFFC400
01DFFEEFFF60
0BFE6002BFF3
3FF500000DFA
7FC0000005FD
8FA0000003FF
6FD0000006FD
2FF600001DF9
0AFF8104DFE2
01CFFFFFFF50
0008EFFFB300
000002310000
ENDCHAR
STARTCHAR omacron
ENCODING 333
SWIDTH 579 0
DWIDTH 9 0
BBX 9 13 0 -1
BITMAP
0013332000
005FFF9000
0027774000
0028A94000
04EFFFF800
1EFC8BFF40
7FD0009FB0
9F80005FD0
8FA0006FC0
4FF613DF80
0AFFFFFD10
007EFFA100
0000210000
ENDCHAR
STARTCHAR Obreve
ENCODING 334
SWIDTH 777 0
DWIDTH 12 0
BBX 12 15 0 -1
BITMAP
00006C5C0000
00004FFD0000
000017A40000
0019FFFFC400
01DFFEEFFF60
0BFE6002BFF3
3FF500000DFA
7FC0000005FD
8FA0000003FF
6FD0000006FD
2FF600001DF9
0AFF8104DFE2
01CFFFFFFF50
0008EFFFB300
000002310000
ENDCHAR
STARTCHAR obreve
ENCODING 335
SWIDTH 579 0
DWIDTH 9 0
BBX 9 13 0 -1
BITMAP
001D5C5000
000DFF4000
0001530000
0028A94000
04EFFFF800
1EFC8BFF40
7FD0009FB0
9F80005FD0
8FA0006FC0
4FF613DF80
0AFFFFFD10
007EFFA100
0000210000
ENDCHAR
STARTCHAR Ohungarumlaut
ENCODING 336
SWIDTH 777 0
DWIDTH 12 0
BBX 12 17 0 -1
BITMAP
000008605000
00005FE7FA00
0000DE5EE400
0000321A3000
000014520000
0019FFFFC400
01DFFEEFFF60
0BFE6002BFF3
3FF500000DFA
7FC0000005FD
8FA0000003FF
6FD0000006FD
2FF600001DF9
0AFF8104DFE2
01CFFFFFFF50
0008EFFFB300
000002310000
ENDCHAR
STARTCHAR ohungarumlaut
ENCODING 337
SWIDTH 579 0
DWIDTH 9 0
BBX 9 14 0 -1
BITMAP
0002B12300
000CF9DE30
006F8AFA00
0004058000
0028A94000
04EFFFF800
1EFC8BFF40
7FD0009FB0
9F80005FD0
8FA0006FC0
4FF613DF80
0AFFFFFD10
007EFFA100
0000210000
ENDCHAR
STARTCHAR OE
ENCODING 338
SWIDTH 1125 0
DWIDTH 18 0
BBX 18 13 0 -1
BITMAP
000014530133333331
0019FFFFD7FFFFFFF7
01DFFEEFFFFFFFFFF7
0BFE6002BFFF100000
3FF500000DFF100000
7FC0000005FFBBB800
8FA0000003FFFFFB00
6FD0000006FF888600
2FF600001DFF100000
0AFF8104DFFF444442
01CFFFFFFFFFFFFFF7
0008EFFFB6FFFFFFF7
000002310000000000
ENDCHAR
STARTCHAR oe
ENCODING 339
SWIDTH 924 0
DWIDTH 15 0
BBX 15 10 0 -1
BITMAP
0028A94006996000
04EFFFF9CFFFFD10
1EFC8BFFFE9BFF40
7FD0009FF42EF600
9F80005FF1CF9000
8FA0006FF9FB1000
4FF613DFFFD29A00
0AFFFFFEFFFFFF40
007EFFA24DFFD500
0000210000110000
ENDCHAR
STARTCHAR Racute
ENCODING 340
SWIDTH 651 0
DWIDTH 10 0
BBX 9 15 1 0
BITMAP
00004D2000
0005FF8000
0006D40000
3333310000
EFFFFFB200
EFFFFFFD10
EF5015EF90
EF40007FD0
EF40004FE0
EF4000AFC0
EF978BFF60
EFFFFFF900
EFCBCFF200
EF400DF800
EF4007FE00
ENDCHAR
STARTCHAR racute
ENCODING 341
SWIDTH 414 0
DWIDTH 7 0
BBX 7 12 0 0
BITMAP
0001B700
001CFD10
001D8100
13035520
3DAFFF70
3FFFCC50
3FF40000
3FF00000
3FE00000
3FE00000
3FE00000
3FE00000
ENDCHAR
STARTCHAR Rcommaaccent
ENCODING 342
SWIDTH 651 0
DWIDTH 10 0
BBX 9 16 1 -4
BITMAP
3333310000
EFFFFFB200
EFFFFFFD10
EF5015EF90
EF40007FD0
EF40004FE0
EF4000AFC0
EF978BFF60
EFFFFFF900
EFCBCFF200
EF400DF800
EF4007FE00
0001200000
000BF30000
0007F30000
0002C00000
ENDCHAR
STARTCHAR rcommaaccent
ENCODING 343
SWIDTH 414 0
DWIDTH 7 0
BBX 7 13 0 -4
BITMAP
13035520
3DAFFF70
3FFFCC50
3FF40000
3FF00000
3FE00000
3FE00000
3FE00000
3FE00000
02100000
2FC00000
1CC00000
08600000
ENDCHAR
STARTCHAR Rcaron
ENCODING 344
SWIDTH 651 0
DWIDTH 10 0
BBX 9 16 1 0
BITMAP
0011010000
00AC7E2000
003EF90000
0002800000
3333310000
EFFFFFB200
EFFFFFFD10
EF5015EF90
EF40007FD0
EF40004FE0
EF4000AFC0
EF978BFF60
EFFFFFF900
EFCBCFF200
EF400DF800
EF4007FE00
ENDCHAR
STARTCHAR rcaron
ENCODING 345
SWIDTH 414 0
DWIDTH 7 0
BBX 7 13 0 0
BITMAP
00101000
08C6E300
03DFA000
00280000
13035520
3DAFFF70
3FFFCC50
3FF40000
3FF00000
3FE00000
3FE00000
3FE00000
3FE00000
ENDCHAR
STARTCHAR Sacute
ENCODING 346
SWIDTH 610 0
DWIDTH 10 0
BBX 10 15 0 0
BITMAP
000004D200
00005FF800
00006D4000
0003333330
04EFFFFFD0
2EFFFFFFD0
8FD2000000
9FB0000000
4FFCBBA400
08FFFFFF70
004788BFF2
0000000EF5
0444447FF3
0FFFFFFFB0
0FFFFFE910
ENDCHAR
STARTCHAR sacute
ENCODING 347
SWIDTH 523 0
DWIDTH 8 0
BBX 8 12 0 0
BITMAP
00001B70
0001CFD1
0001D800
00356553
0AFFFFF8
4FFCCCC6
6FC22200
2FFFFFD3
05CFFFFD
122224FF
7FFFFFFB
7FFFFFB2
ENDCHAR
STARTCHAR Scircumflex
ENCODING 348
SWIDTH 610 0
DWIDTH 10 0
BBX 10 15 0 0
BITMAP
0001B80000
001CFF9000
0009467000
0003333330
04EFFFFFD0
2EFFFFFFD0
8FD2000000
9FB0000000
4FFCBBA400
08FFFFFF70
004788BFF2
0000000EF5
0444447FF3
0FFFFFFFB0
0FFFFFE910
ENDCHAR
STARTCHAR scircumflex
ENCODING 349
SWIDTH 523 0
DWIDTH 8 0
BBX 8 12 0 0
BITMAP
0008C100
008FFD10
00673A00
00355553
0AFFFFF8
4FFCCCC6
6FC22200
2FFFFFD3
05CFFFFD
122224FF
7FFFFFFB
7FFFFFB2
ENDCHAR
STARTCHAR Scedilla
ENCODING 350
SWIDTH 610 0
DWIDTH 10 0
BBX 10 16 0 -4
BITMAP
0003333330
04EFFFFFD0
2EFFFFFFD0
8FD2000000
9FB0000000
4FFCBBA400
08FFFFFF70
004788BFF2
0000000EF5
0444447FF3
0FFFFFFFB0
0FFFFFE910
0000990000
00017F6000
0009DF6000
0003870000
ENDCHAR
STARTCHAR scedilla
ENCODING 351
SWIDTH 523 0
DWIDTH 8 0
BBX 8 13 0 -4
BITMAP
00355553
0AFFFFF8
4FFCCCC6
6FC22200
2FFFFFD3
05CFFFFD
122224FF
7FFFFFFB
7FFFFFB2
0004D100
0004DB00
004DEB00
00178200
ENDCHAR
STARTCHAR Scaron
ENCODING 352
SWIDTH 610 0
DWIDTH 10 0
BBX 10 16 0 0
BITMAP
0001001000
001E8BA000
0008FF4000
0000640000
0003333330
04EFFFFFD0
2EFFFFFFD0
8FD2000000
9FB0000000
4FFCBBA400
08FFFFFF70
004788BFF2
0000000EF5
0444447FF3
0FFFFFFFB0
0FFFFFE910
ENDCHAR
STARTCHAR scaron
ENCODING 353
SWIDTH 523 0
DWIDTH 8 0
BBX 8 13 0 0
BITMAP
00010100
007D6E40
002DFB10
00018100
00355553
0AFFFFF8
4FFCCCC6
6FC22200
2FFFFFD3
05CFFFFD
122224FF
7FFFFFFB
7FFFFFB2
ENDCHAR
STARTCHAR Tcommaaccent
ENCODING 354
SWIDTH 578 0
DWIDTH 9 0
BBX 10 16 0 -4
BITMAP
3333333330
DFFFFFFFF2
DFFFFFFFF2
0008FB0000
0007FB0000
0007FB0000
0007FB0000
0007FB0000
0007FB0000
0007FB0000
0007FB0000
0007FB0000
0000200000
0005F90000
0002E90000
0000B30000
ENDCHAR
STARTCHAR tcommaaccent
ENCODING 355
SWIDTH 437 0
DWIDTH 7 0
BBX 7 16 0 -4
BITMAP
08B40000
0BF60000
0BF60000
4CF95530
CFFFFF90
9EFDCC70
0BF60000
0BF60000
0BF70000
07FD4210
01DFFF90
001AEF90
00030000
007F7000
004E7000
000C2000
ENDCHAR
STARTCHAR Tcaron
ENCODING 356
SWIDTH 578 0
DWIDTH 9 0
BBX 10 16 0 0
BITMAP
0001010000
004E6D7000
001BFD2000
0000820000
3333333330
DFFFFFFFF2
DFFFFFFFF2
0008FB0000
0007FB0000
0007FB0000
0007FB0000
0007FB0000
0007FB0000
0007FB0000
0007FB0000
0007FB0000
ENDCHAR
STARTCHAR tcaron
ENCODING 357
SWIDTH 570 0
DWIDTH 9 0
BBX 10 12 0 0
BITMAP
08B4000110
0BF6000DE1
0BF6000AF1
4CF95534A0
CFFFFF9000
9EFDCC7000
0BF6000000
0BF6000000
0BF7000000
07FD421000
01DFFF9000
001AEF9000
ENDCHAR
STARTCHAR Tbar
ENCODING 358
SWIDTH 578 0
DWIDTH 9 0
BBX 10 12 0 0
BITMAP
3333333330
DFFFFFFFF2
DFFFFFFFF2
0008FB0000
0007FB0000
0007FB0000
00AEFEC000
00CFFFF000
003AFC4000
0007FB0000
0007FB0000
0007FB0000
ENDCHAR
STARTCHAR tbar
ENCODING 359
SWIDTH 437 0
DWIDTH 7 0
BBX 7 12 0 0
BITMAP
08B40000
0BF60000
0BF60000
4CF95530
CFFFFF90
9EFDCC70
4CF95000
BFFFF100
7DFC9100
07FD4210
01DFFF90
001AEF90
ENDCHAR
STARTCHAR Utilde
ENCODING 360
SWIDTH 673 0
DWIDTH 11 0
BBX 10 14 0 0
BITMAP
000BF89E00
002FCEFD00
034A438433
1FF20005FD
1FF20005FD
1FF20005FD
1FF20005FD
1FF20005FD
1FF20005FD
1FF30006FD
0EF6000AFB
08FE749FF6
01CFFFFFA0
0018DFD600
ENDCHAR
STARTCHAR utilde
ENCODING 361
SWIDTH 562 0
DWIDTH 9 0
BBX 9 13 0 -1
BITMAP
00AF97F000
01FDEFE000
0095284000
2650005610
4FC000EF30
4FC000EF30
4FC000EF30
4FC000EF30
4FD000FF30
2FF508FF30
09FFFFFF30
019FFE6A30
0001200000
ENDCHAR
STARTCHAR Umacron
ENCODING 362
SWIDTH 673 0
DWIDTH 11 0
BBX 10 14 0 0
BITMAP
0002333100
0009FFF500
0334777333
1FF20005FD
1FF20005FD
1FF20005FD
1FF20005FD
1FF20005FD
1FF20005FD
1FF30006FD
0EF6000AFB
08FE749FF6
01CFFFFFA0
0018DFD600
ENDCHAR
STARTCHAR umacron
ENCODING 363
SWIDTH 562 0
DWIDTH 9 0
BBX 9 12 0 -1
BITMAP
0023332000
007FFF7000
2687778610
4FC000EF30
4FC000EF30
4FC000EF30
4FC000EF30
4FD000FF30
2FF508FF30
09FFFFFF30
019FFE6A30
0001200000
ENDCHAR
STARTCHAR Ubreve
ENCODING 364
SWIDTH 673 0
DWIDTH 11 0
BBX 10 14 0 0
BITMAP
0004D4D200
0002EFE100
0330252133
1FF20005FD
1FF20005FD
1FF20005FD
1FF20005FD
1FF20005FD
1FF20005FD
1FF30006FD
0EF6000AFB
08FE749FF6
01CFFFFFA0
0018DFD600
ENDCHAR
STARTCHAR ubreve
ENCODING 365
SWIDTH 562 0
DWIDTH 9 0
BBX 9 12 0 -1
BITMAP
003D4D2000
002EFE1000
2652525610
4FC000EF30
4FC000EF30
4FC000EF30
4FC000EF30
4FD000FF30
2FF508FF30
09FFFFFF30
019FFE6A30
0001200000
ENDCHAR
STARTCHAR Uring
ENCODING 366
SWIDTH 673 0
DWIDTH 11 0
BBX 10 15 0 0
BITMAP
0000140000
0000DDA000
0001F7D000
03306B4133
1FF20005FD
1FF20005FD
1FF20005FD
1FF20005FD
1FF20005FD
1FF20005FD
1FF30006FD
0EF6000AFB
08FE749FF6
01CFFFFFA0
0018DFD600
ENDCHAR
STARTCHAR uring
ENCODING 367
SWIDTH 562 0
DWIDTH 9 0
BBX 9 14 0 -1
BITMAP
0001410000
000CDC0000
000E6E0000
0005B50000
2650005610
4FC000EF30
4FC000EF30
4FC000EF30
4FC000EF30
4FD000FF30
2FF508FF30
09FFFFFF30
019FFE6A30
0001200000
ENDCHAR
STARTCHAR Uhungarumlaut
ENCODING 368
SWIDTH 673 0
DWIDTH 11 0
BBX 10 15 0 0
BITMAP
0000590410
0002EF7ED1
000AF6DF70
0332308633
1FF20005FD
1FF20005FD
1FF20005FD
1FF20005FD
1FF20005FD
1FF20005FD
1FF30006FD
0EF6000AFB
08FE749FF6
01CFFFFFA0
0018DFD600
ENDCHAR
STARTCHAR uhungarumlaut
ENCODING 369
SWIDTH 562 0
DWIDTH 9 0
BBX 9 14 0 -1
BITMAP
0004A04200
001EF8ED20
008F7CF800
0014076000
2650005610
4FC000EF30
4FC000EF30
4FC000EF30
4FC000EF30
4FD000FF30
2FF508FF30
09FFFFFF30
019FFE6A30
0001200000
ENDCHAR
STARTCHAR Uogonek
ENCODING 370
SWIDTH 673 0
DWIDTH 11 0
BBX 10 15 0 -3
BITMAP
0330000133
1FF20005FD
1FF20005FD
1FF20005FD
1FF20005FD
1FF20005FD
1FF20005FD
1FF30006FD
0EF6000AFB
09FE749FF5
01CFFFFFA0
0018EFD700
0001E50000
0005FC7000
0001AC6000
ENDCHAR
STARTCHAR uogonek
ENCODING 371
SWIDTH 562 0
DWIDTH 9 0
BBX 10 12 0 -3
BITMAP
2650005610
4FC000EF30
4FC000EF30
4FC000EF30
4FC000EF30
4FD000FF30
2FF508FF30
09FFFFFF30
019FFE6C30
0001208D00
000000CDB2
0000005CA2
ENDCHAR
STARTCHAR Wcircumflex
ENCODING 372
SWIDTH 819 0
DWIDTH 13 0
BBX 12 16 1 -1
BITMAP
00003D400000
0004EFF50000
0002A1A30000
331023200330
FF308FA01FF2
FF308FA01FF2
FF308FA01FF2
FF308FA01FF2
FF308FA01FF2
FF308FA01FF2
FF308FA01FF2
FF309FA01FF2
EF82CFD37FF1
8FFFFFFFFF90
08FFD7DFF910
001200011000
ENDCHAR
STARTCHAR wcircumflex
ENCODING 373
SWIDTH 756 0
DWIDTH 12 0
BBX 12 13 0 -1
BITMAP
00000AA00000
0000AFFB1000
000076490000
155005510452
4FD00FF20BF6
4FD00FF20BF6
4FD00FF20BF6
4FD00FF20BF6
4FD00FF20BF6
2FF24FF51EF4
0CFFFFFFFFD1
02BFFA9FFC30
000110011000
ENDCHAR
STARTCHAR Ycircumflex
ENCODING 374
SWIDTH 620 0
DWIDTH 10 0
BBX 10 14 0 0
BITMAP
0001B90000
000BFFA000
2329458231
8FB0000CF7
8FB0000CF7
8FB0000CF7
7FC0000DF6
4FF4005FF3
0CFFBBFFB0
02CFFFFC10
0006FF5000
0002FF1000
0002FF1000
0002FF1000
ENDCHAR
STARTCHAR ycircumflex
ENCODING 375
SWIDTH 562 0
DWIDTH 9 0
BBX 9 16 0 -4
BITMAP
0004D40000
004FFF4000
002A1A3000
2650005610
4FC000EF30
4FC000EF30
4FC000EF30
4FC000EF30
4FD000FF30
2FF508FF30
09FFFFFF30
019FFEFF20
00013AFD00
002EFFF400
003FFD4000
0003200000
ENDCHAR
STARTCHAR Ydieresis
ENCODING 376
SWIDTH 620 0
DWIDTH 10 0
BBX 10 14 0 0
BITMAP
0016116000
006F78F400
2337227331
8FB0000CF7
8FB0000CF7
8FB0000CF7
7FC0000DF6
4FF4005FF3
0CFFBBFFB0
02CFFFFC10
0006FF5000
0002FF1000
0002FF1000
0002FF1000
ENDCHAR
STARTCHAR Zacute
ENCODING 377
SWIDTH 586 0
DWIDTH 9 0
BBX 10 15 0 0
BITMAP
000006D100
00007FF500
00009C3000
2333333330
9FFFFFFFA0
9FFFFFFF20
00002FF900
00009FF200
0003FF8000
000AFE1000
003FF70000
00BFE10000
04FF944440
0CFFFFFFF1
5FFFFFFFF1
ENDCHAR
STARTCHAR zacute
ENCODING 378
SWIDTH 481 0
DWIDTH 8 0
BBX 8 12 0 0
BITMAP
00004D20
0005FF70
0006D400
35556551
9FFFFFD0
7CCCFF40
0008FB00
002FF300
00AF9000
03FF3221
0CFFFFF5
5FFFFFF5
ENDCHAR
STARTCHAR Zdotaccent
ENCODING 379
SWIDTH 586 0
DWIDTH 9 0
BBX 10 14 0 0
BITMAP
0000830000
0004FA0000
2333853330
9FFFFFFFA0
9FFFFFFF20
00002FF900
00009FF200
0003FF8000
000AFE1000
003FF70000
00BFE10000
04FF944440
0CFFFFFFF1
5FFFFFFFF1
ENDCHAR
STARTCHAR zdotaccent
ENCODING 380
SWIDTH 481 0
DWIDTH 8 0
BBX 8 11 0 0
BITMAP
00074000
001FC000
355A8551
9FFFFFD0
7CCCFF40
0008FB00
002FF300
00AF9000
03FF3221
0CFFFFF5
5FFFFFF5
ENDCHAR
STARTCHAR Zcaron
ENCODING 381
SWIDTH 586 0
DWIDTH 9 0
BBX 10 16 0 0
BITMAP
0001010000
003E6C8000
000AFE3000
0000830000
2333333330
9FFFFFFFA0
9FFFFFFF20
00002FF900
00009FF200
0003FF8000
000AFE1000
003FF70000
00BFE10000
04FF944440
0CFFFFFFF1
5FFFFFFFF1
ENDCHAR
STARTCHAR zcaron
ENCODING 382
SWIDTH 481 0
DWIDTH 8 0
BBX 8 13 0 0
BITMAP
00100100
01E8BA00
008FF400
00064000
35555551
9FFFFFD0
7CCCFF40
0008FB00
002FF300
00AF9000
03FF3221
0CFFFFF5
5FFFFFF5
ENDCHAR
STARTCHAR AEacute
ENCODING 508
SWIDTH 988 0
DWIDTH 16 0
BBX 16 15 0 0
BITMAP
0000000008B00000
000000009FE30000
00000000BA200000
0000133333333331
003BFFFFFFFFFFF4
02EFFFFFFFFFFFF4
0AFD4106FD000000
0FF50006FD000000
1FF20006FEBBB600
1FF20006FFFFF800
1FF8777AFE888400
1FFFFFFFFD000000
1FFCBBBDFE444441
1FF20006FFFFFFF4
1FF20006FFFFFFF4
ENDCHAR
STARTCHAR aeacute
ENCODING 509
SWIDTH 976 0
DWIDTH 16 0
BBX 16 13 0 -1
BITMAP
000000001B700000
00000001CFD10000
00000001D8000000
0028A820417A9500
04FFFFF9EDFFFFB0
1EFC8BFFFFE8DFE2
7FD000AFFF24FF40
9F90004FFC2EF600
8FA0006FFDBF8100
4FF504EFFFFB2B80
0BFFFFFFFFFFFFF2
019FFF92C6EFFC30
0000210000021000
ENDCHAR
STARTCHAR Oslashacute
ENCODING 510
SWIDTH 777 0
DWIDTH 12 0
BBX 12 16 0 -1
BITMAP
0000002D4000
000003EFA000
000003E60000
000014520331
0019FFFFDFC1
01DFFEEFFF80
0BFE600BFFF3
3FF5007FACFA
7FC003FD16FE
8FA01DF404FF
7FD0AF7006FD
2FFAFB001DF9
0AFFF304DFE2
01FFFFFFFF50
08FCEFFFB300
000002310000
ENDCHAR
STARTCHAR oslashacute
ENCODING 511
SWIDTH 579 0
DWIDTH 9 0
BBX 9 13 0 -1
BITMAP
000007C000
00008FF400
0000AB2000
0028A86750
04EFFFFF30
1EFC8EFF40
7FD07FEFB0
9F83FD6FD0
8FBDF36FC0
4FFF73DF80
0CFFFFFD10
3FEEFFA100
0000210000
ENDCHAR
STARTCHAR dotlessj
ENCODING 567
SWIDTH 237 0
DWIDTH 4 0
BBX 6 13 -3 -4
BITMAP
000166
0003FF
0003FF
0003FF
0003FF
0003FF
0003FF
0003FF
0004FE
002CFA
5EFFE2
6FFB30
131000
ENDCHAR
STARTCHAR circumflex
ENCODING 710
SWIDTH 267 0
DWIDTH 4 0
BBX 5 3 0 8
BITMAP
09B100
9FFC10
673A00
ENDCHAR
STARTCHAR caron
ENCODING 711
SWIDTH 267 0
DWIDTH 4 0
BBX 5 4 0 8
BITMAP
100100
BB8D10
4EF800
037000
ENDCHAR
STARTCHAR breve
ENCODING 728
SWIDTH 220 0
DWIDTH 4 0
BBX 4 3 0 8
BITMAP
C6B6
BFF5
1540
ENDCHAR
STARTCHAR dotaccent
ENCODING 729
SWIDTH 125 0
DWIDTH 2 0
BBX 2 3 0 8
BITMAP
66
EE
33
ENDCHAR
STARTCHAR ring
ENCODING 730
SWIDTH 192 0
DWIDTH 3 0
BBX 4 4 0 8
BITMAP
0410
BDC0
E7F1
5B60
ENDCHAR
STARTCHAR ogonek
ENCODING 731
SWIDTH 212 0
DWIDTH 3 0
BBX 4 4 0 -3
BITMAP
0620
9B00
EDB1
6C91
ENDCHAR
STARTCHAR tilde
ENCODING 732
SWIDTH 321 0
DWIDTH 5 0
BBX 6 3 0 8
BITMAP
9FA6F1
FDEFF1
862840
ENDCHAR
STARTCHAR hungarumlaut
ENCODING 733
SWIDTH 384 0
DWIDTH 6 0
BBX 6 4 0 8
BITMAP
077051
3FF7FC
CE5EF5
230940
ENDCHAR
STARTCHAR uni0312
ENCODING 786
SWIDTH 192 0
DWIDTH 3 0
BBX 3 4 0 8
BITMAP
1900
6E30
7F80
1610
ENDCHAR
STARTCHAR uni0315
ENCODING 789
SWIDTH 132 0
DWIDTH 2 0
BBX 3 4 0 8
BITMAP
1100
DE10
AF10
4A00
ENDCHAR
STARTCHAR uni0326
ENCODING 806
SWIDTH 193 0
DWIDTH 3 0
BBX 3 4 0 -4
BITMAP
0300
6F80
3E80
0B20
ENDCHAR
STARTCHAR pi
ENCODING 960
SWIDTH 555 0
DWIDTH 9 0
BBX 9 9 0 0
BITMAP
4666666630
BFFFFFFF90
8DFECEFD70
06FB0DF400
06FB0DF400
06FB0DF400
06FB0DF400
06FB0DF400
06FB0DF400
ENDCHAR
STARTCHAR Wgrave
ENCODING 7808
SWIDTH 819 0
DWIDTH 13 0
BBX 12 16 1 -1
BITMAP
000A90000000
003EFA000000
0001AB000000
331023200330
FF308FA01FF2
FF308FA01FF2
FF308FA01FF2
FF308FA01FF2
FF308FA01FF2
FF308FA01FF2
FF308FA01FF2
FF309FA01FF2
EF82CFD37FF1
8FFFFFFFFF90
08FFD7DFF910
001200011000
ENDCHAR
STARTCHAR wgrave
ENCODING 7809
SWIDTH 756 0
DWIDTH 12 0
BBX 12 13 0 -1
BITMAP
0005C1000000
000CFD200000
00007E200000
155006510452
4FD00FF20BF6
4FD00FF20BF6
4FD00FF20BF6
4FD00FF20BF6
4FD00FF20BF6
2FF24FF51EF4
0CFFFFFFFFD1
02BFFA9FFC30
000110011000
ENDCHAR
STARTCHAR Wacute
ENCODING 7810
SWIDTH 819 0
DWIDTH 13 0
BBX 12 16 1 -1
BITMAP
0000008B0000
000009FE3000
00000BA20000
331023200330
FF308FA01FF2
FF308FA01FF2
FF308FA01FF2
FF308FA01FF2
FF308FA01FF2
FF308FA01FF2
FF308FA01FF2
FF309FA01FF2
EF82CFD37FF1
8FFFFFFFFF90
08FFD7DFF910
001200011000
ENDCHAR
STARTCHAR wacute
ENCODING 7811
SWIDTH 756 0
DWIDTH 12 0
BBX 12 13 0 -1
BITMAP
0000001C6000
000002CFC000
000002D70000
155005610452
4FD00FF20BF6
4FD00FF20BF6
4FD00FF20BF6
4FD00FF20BF6
4FD00FF20BF6
2FF24FF51EF4
0CFFFFFFFFD1
02BFFA9FFC30
000110011000
ENDCHAR
STARTCHAR Wdieresis
ENCODING 7812
SWIDTH 819 0
DWIDTH 13 0
BBX 12 15 1 -1
BITMAP
000350430000
000CF1ED0000
331483750330
FF308FA01FF2
FF308FA01FF2
FF308FA01FF2
FF308FA01FF2
FF308FA01FF2
FF308FA01FF2
FF308FA01FF2
FF309FA01FF2
EF82CFD37FF1
8FFFFFFFFF90
08FFD7DFF910
001200011000
ENDCHAR
STARTCHAR wdieresis
ENCODING 7813
SWIDTH 756 0
DWIDTH 12 0
BBX 12 12 0 -1
BITMAP
000062161000
0004F96F6000
155078781452
4FD00FF20BF6
4FD00FF20BF6
4FD00FF20BF6
4FD00FF20BF6
4FD00FF20BF6
2FF24FF51EF4
0CFFFFFFFFD1
02BFFA9FFC30
000110011000
ENDCHAR
STARTCHAR Ygrave
ENCODING 7922
SWIDTH 620 0
DWIDTH 10 0
BBX 10 15 0 0
BITMAP
009A000000
02EFB10000
0019C00000
2320000231
8FB0000CF7
8FB0000CF7
8FB0000CF7
7FC0000DF6
4FF4005FF3
0CFFBBFFB0
02CFFFFC10
0006FF5000
0002FF1000
0002FF1000
0002FF1000
ENDCHAR
STARTCHAR ygrave
ENCODING 7923
SWIDTH 562 0
DWIDTH 9 0
BBX 9 16 0 -4
BITMAP
03D3000000
08FE400000
004D500000
2650005610
4FC000EF30
4FC000EF30
4FC000EF30
4FC000EF30
4FD000FF30
2FF508FF30
09FFFFFF30
019FFEFF20
00013AFD00
002EFFF400
003FFD4000
0003200000
ENDCHAR
STARTCHAR endash
ENCODING 8211
SWIDTH 418 0
DWIDTH 7 0
BBX 5 3 1 4
BITMAP
BBBB80
FFFFC0
666650
ENDCHAR
STARTCHAR emdash
ENCODING 8212
SWIDTH 719 0
DWIDTH 12 0
BBX 10 3 1 4
BITMAP
BBBBBBBBB6
FFFFFFFFF8
6666666663
ENDCHAR
STARTCHAR quoteleft
ENCODING 8216
SWIDTH 246 0
DWIDTH 4 0
BBX 4 5 0 7
BITMAP
0100
0B80
2FA0
4FF4
1CC1
ENDCHAR
STARTCHAR quoteright
ENCODING 8217
SWIDTH 245 0
DWIDTH 4 0
BBX 4 5 0 7
BITMAP
0210
3FE1
5FF3
08E1
0770
ENDCHAR
STARTCHAR quotesinglbase
ENCODING 8218
SWIDTH 264 0
DWIDTH 4 0
BBX 4 5 0 -2
BITMAP
0010
1DE3
2FF6
07F3
05A0
ENDCHAR
STARTCHAR quotedblleft
ENCODING 8220
SWIDTH 445 0
DWIDTH 7 0
BBX 7 5 0 7
BITMAP
01000100
0B808B00
2FA1EC10
4FF6FF70
1CC1AD30
ENDCHAR
STARTCHAR quotedblright
ENCODING 8221
SWIDTH 444 0
DWIDTH 7 0
BBX 7 5 0 7
BITMAP
02101200
3FE2EF40
5FF5FF60
08E15F30
07704900
ENDCHAR
STARTCHAR quotedblbase
ENCODING 8222
SWIDTH 463 0
DWIDTH 7 0
BBX 7 5 0 -2
BITMAP
00100100
1DE3BF50
2FF6EF90
07F34F60
05A03C10
ENDCHAR
STARTCHAR dagger
ENCODING 8224
SWIDTH 434 0
DWIDTH 7 0
BBX 7 15 0 -2
BITMAP
008C7000
00AF9000
00AF9000
7EFFFE60
7FFFFF70
13BFA310
00AF9000
00AF9000
00AF9000
00AF9000
00AF9000
00AF9000
00AF9000
00AF9000
00696000
ENDCHAR
STARTCHAR daggerdbl
ENCODING 8225
SWIDTH 452 0
DWIDTH 7 0
BBX 7 15 0 -2
BITMAP
006C9000
008FB000
008FB000
5EEFFE80
5FFFFF90
139FC320
008FB000
008FB000
008FB000
38CFD850
5FFFFF90
39CFE950
008FB000
008FB000
00597000
ENDCHAR
STARTCHAR bullet
ENCODING 8226
SWIDTH 354 0
DWIDTH 6 0
BBX 4 4 1 4
BITMAP
0540
9FF4
BFF7
4CB1
ENDCHAR
STARTCHAR ellipsis
ENCODING 8230
SWIDTH 789 0
DWIDTH 13 0
BBX 12 4 0 -1
BITMAP
001000100010
1DE30BF608F9
2FF50EF90BFC
057003710282
ENDCHAR
STARTCHAR perthousand
ENCODING 8240
SWIDTH 998 0
DWIDTH 16 0
BBX 16 13 0 -1
BITMAP
0154000131000000
0CFF9009F2000000
4F69F02F80000000
5F25F2AE10000000
3F7AF4F700000000
0BFF7CD000000000
00325F5672006720
0000DC9FFE19FFE1
0007F4E93F5E93F5
001EB1F71F7F71F6
008F20EC8F4EC8F4
02F9005FFA05FFA0
0000000110001100
ENDCHAR
STARTCHAR guilsinglleft
ENCODING 8249
SWIDTH 403 0
DWIDTH 6 0
BBX 6 8 0 0
BITMAP
0004D3
003EF7
03EF80
3EF800
3EFA00
02DFB1
002DF8
000191
ENDCHAR
STARTCHAR guilsinglright
ENCODING 8250
SWIDTH 402 0
DWIDTH 6 0
BBX 6 8 0 0
BITMAP
09A000
2EF900
02EF90
002EF8
004EF8
06FF70
2FF600
056000
ENDCHAR
STARTCHAR fraction
ENCODING 8260
SWIDTH 477 0
DWIDTH 8 0
BBX 8 12 0 0
BITMAP
00000032
000005F5
00000DC0
00007F40
0001EB00
0008F300
002F9000
00AE2000
03F80000
0BE10000
4F600000
CD000000
ENDCHAR
STARTCHAR Euro
ENCODING 8364
SWIDTH 806 0
DWIDTH 13 0
BBX 13 13 0 -1
BITMAP
00000014540000
000007EFFFE700
0000BFFFEFFD10
0007FF81019500
07DFFFDD000000
0BFFFFFC000000
048FE442000000
3FFFFFF6000000
5CCEFFC2000000
0006FFA203B600
00009FFFFFFE10
000006DFFFD500
00000002320000
ENDCHAR
STARTCHAR trademark
ENCODING 8482
SWIDTH 606 0
DWIDTH 10 0
BBX 9 5 0 7
BITMAP
0333032300
19E94CEB80
00C057B3A0
00C057B3A0
00A0469280
ENDCHAR
STARTCHAR partialdiff
ENCODING 8706
SWIDTH 609 0
DWIDTH 10 0
BBX 10 14 0 -1
BITMAP
0001330000
0002FF7000
00007FE100
00000DF800
00169BFE10
02DFFFFF60
0CFE89FFB0
4FE2006FE0
6FC0001FF1
5FD0003FF0
1EF812CFB0
07FFFFFE20
005EFFC300
0000210000
ENDCHAR
STARTCHAR product
ENCODING 8719
SWIDTH 632 0
DWIDTH 10 0
BBX 10 12 0 0
BITMAP
1333333332
6FFFFFFFF8
6FFFFFFFF8
00FF52FF20
00FF42FF10
00FF42FF10
00FF42FF10
00FF42FF10
00FF42FF10
00FF42FF10
00FF42FF10
00FF42FF10
ENDCHAR
STARTCHAR minus
ENCODING 8722
SWIDTH 543 0
DWIDTH 9 0
BBX 7 3 1 4
BITMAP
ABBBBB70
EFFFFFA0
66666640
ENDCHAR
STARTCHAR infinity
ENCODING 8734
SWIDTH 771 0
DWIDTH 12 0
BBX 12 8 0 1
BITMAP
008DC42ADA20
0AFFFFEFFFD1
2FF6AFFA6EF7
4FC00EF307FA
3FE21DF90AF8
0CFFFFFFFFF3
03DFFB6EFF60
000320014200
ENDCHAR
STARTCHAR approxequal
ENCODING 8776
SWIDTH 476 0
DWIDTH 8 0
BBX 6 7 1 2
BITMAP
5B81A7
EFFDF9
EC4EE3
362143
CFF7F9
FDBFF7
870660
ENDCHAR
STARTCHAR notequal
ENCODING 8800
SWIDTH 512 0
DWIDTH 8 0
BBX 8 11 0 0
BITMAP
00001650
00006F90
1555CF82
3FFFFFF5
2CCEFDC4
022DF321
3FFFFFF5
3FFFFFF5
01FE0000
06F90000
04520000
ENDCHAR
STARTCHAR fi
ENCODING 64257
SWIDTH 650 0
DWIDTH 10 0
BBX 10 13 0 0
BITMAP
0002676000
005EFFB8F9
02FFC97DFE
08FB0004B5
4BFB666663
AFFFFFFFF9
7EFDBBBDF9
09F80008F9
09F80008F9
09F80008F9
09F80008F9
09F80008F9
09F80008F9
ENDCHAR
STARTCHAR fl
ENCODING 64258
SWIDTH 631 0
DWIDTH 10 0
BBX 10 13 0 0
BITMAP
0002678882
005EFFFFF5
02FFC99EF5
08FB000DF5
4BFB661DF5
AFFFFF2DF5
7EFDBB2DF5
09F8000DF5
09F8000DF5
09F8000DF4
09F8000DF4
09F8000DF4
09F8000DF4
ENDCHAR
STARTCHAR .notdef
ENCODING -1
SWIDTH 279 0
DWIDTH 4 0
BBX 1 1 0 0
BITMAP
00
ENDCHAR
STARTCHAR .null
ENCODING -1
SWIDTH 0 0
DWIDTH 0 0
BBX 1 1 0 0
BITMAP
00
ENDCHAR
STARTCHAR nonmarkingreturn
ENCODING -1
SWIDTH 279 0
DWIDTH 4 0
BBX 1 1 0 0
BITMAP
00
ENDCHAR
ENDFONT
